<svg width="48" height="48" viewBox="0 0 48 48" fill="none" xmlns="http://www.w3.org/2000/svg">
<g clip-path="url(#clip0_3_2)">
<path d="M24 47.5C36.9787 47.5 47.5 36.9787 47.5 24C47.5 11.0213 36.9787 0.5 24 0.5C11.0213 0.5 0.5 11.0213 0.5 24C0.5 36.9787 11.0213 47.5 24 47.5Z" stroke="white"/>
<path d="M23.7949 0.500896C23.9453 0.499583 24.0957 0.499713 24.2461 0.501287L24 24L23.7949 0.500896Z" fill="#FF0000"/>
<path d="M24.2051 0.500916C24.3555 0.502228 24.5058 0.504984 24.6562 0.509183L24 24L24.2051 0.500916Z" fill="#FF0400"/>
<path d="M24.6152 0.508057C24.7655 0.511993 24.9158 0.517372 25.066 0.524194L24 24L24.6152 0.508057Z" fill="#FF0900"/>
<path d="M25.0251 0.5224C25.1753 0.52896 25.3255 0.536962 25.4756 0.546405L24 24L25.0251 0.5224Z" fill="#FF0D00"/>
<path d="M25.4346 0.543823C25.5847 0.553004 25.7348 0.563626 25.8847 0.575688L24 24L25.4346 0.543823Z" fill="#FF1100"/>
<path d="M25.8438 0.572449C25.9937 0.584248 26.1435 0.597487 26.2932 0.612162L24 24L25.8438 0.572449Z" fill="#FF1500"/>
<path d="M26.2524 0.608215C26.4021 0.62263 26.5516 0.638481 26.701 0.655766L24 24L26.2524 0.608215Z" fill="#FF1A00"/>
<path d="M26.6603 0.651062C26.8097 0.668087 26.959 0.686545 27.108 0.706435L24 24L26.6603 0.651062Z" fill="#FF1E00"/>
<path d="M27.0674 0.70105C27.2165 0.72068 27.3654 0.74174 27.5141 0.764229L24 24L27.0674 0.70105Z" fill="#FF2200"/>
<path d="M27.4735 0.758118C27.6223 0.780347 27.7708 0.804003 27.9191 0.829084L24 24L27.4735 0.758118Z" fill="#FF2600"/>
<path d="M27.8786 0.822266C28.0269 0.847087 28.175 0.873332 28.3229 0.900997L24 24L27.8786 0.822266Z" fill="#FF2B00"/>
<path d="M28.2825 0.893494C28.4304 0.9209 28.578 0.949726 28.7253 0.979966L24 24L28.2825 0.893494Z" fill="#FF2F00"/>
<path d="M28.6851 0.971802C28.8325 1.00178 28.9796 1.03318 29.1264 1.06599L24 24L28.6851 0.971802Z" fill="#FF3300"/>
<path d="M29.0863 1.05701C29.2332 1.08956 29.3797 1.12352 29.5258 1.15888L24 24L29.0863 1.05701Z" fill="#FF3700"/>
<path d="M29.486 1.14929C29.6322 1.1844 29.7781 1.22091 29.9236 1.25882L24 24L29.486 1.14929Z" fill="#FF3C00"/>
<path d="M29.8839 1.24854C30.0295 1.28619 30.1748 1.32524 30.3196 1.36568L24 24L29.8839 1.24854Z" fill="#FF4000"/>
<path d="M30.2801 1.35468C30.425 1.39487 30.5696 1.43645 30.7137 1.47941L24 24L30.2801 1.35468Z" fill="#FF4400"/>
<path d="M30.6744 1.46771C30.8186 1.51043 30.9623 1.55452 31.1057 1.59999L24 24L30.6744 1.46771Z" fill="#FF4800"/>
<path d="M31.0666 1.58765C31.21 1.63287 31.353 1.67947 31.4955 1.72744L24 24L31.0666 1.58765Z" fill="#FF4D00"/>
<path d="M31.4567 1.71442C31.5993 1.76214 31.7414 1.81122 31.8831 1.86167L24 24L31.4567 1.71442Z" fill="#FF5100"/>
<path d="M31.8445 1.8479C31.9862 1.8981 32.1275 1.94966 32.2683 2.00258L24 24L31.8445 1.8479Z" fill="#FF5500"/>
<path d="M32.2299 1.98822C32.3707 2.04089 32.5111 2.09491 32.6509 2.15027L24 24L32.2299 1.98822Z" fill="#FF5900"/>
<path d="M32.6128 2.13519C32.7527 2.19031 32.8921 2.24677 33.0309 2.30457L24 24L32.6128 2.13519Z" fill="#FF5E00"/>
<path d="M32.9931 2.28882C33.132 2.34637 33.2704 2.40525 33.4082 2.46546L24 24L32.9931 2.28882Z" fill="#FF6200"/>
<path d="M33.3706 2.4491C33.5085 2.50906 33.6459 2.57036 33.7826 2.63296L24 24L33.3706 2.4491Z" fill="#FF6600"/>
<path d="M33.7453 2.61591C33.8821 2.67827 34.0184 2.74195 34.154 2.80693L24 24L33.7453 2.61591Z" fill="#FF6A00"/>
<path d="M34.117 2.78925C34.2527 2.85399 34.3879 2.92004 34.5223 2.98738L24 24L34.117 2.78925Z" fill="#FF6F00"/>
<path d="M34.4856 2.96906C34.6202 3.03616 34.7542 3.10455 34.8875 3.17423L24 24L34.4856 2.96906Z" fill="#FF7300"/>
<path d="M34.8511 3.15527C34.9845 3.22472 35.1172 3.29544 35.2493 3.36743L24 24L34.8511 3.15527Z" fill="#FF7700"/>
<path d="M35.2132 3.34778C35.3454 3.41954 35.4769 3.49257 35.6076 3.56685L24 24L35.2132 3.34778Z" fill="#FF7B00"/>
<path d="M35.5719 3.54663C35.7028 3.62069 35.833 3.696 35.9625 3.77255L24 24L35.5719 3.54663Z" fill="#FF8000"/>
<path d="M35.9271 3.75171C36.0567 3.82804 36.1856 3.90561 36.3137 3.98441L24 24L35.9271 3.75171Z" fill="#FF8400"/>
<path d="M36.2787 3.96295C36.4069 4.04153 36.5344 4.12134 36.6611 4.20236L24 24L36.2787 3.96295Z" fill="#FF8800"/>
<path d="M36.6265 4.1803C36.7534 4.2611 36.8794 4.34312 37.0047 4.42635L24 24L36.6265 4.1803Z" fill="#FF8C00"/>
<path d="M36.9705 4.40369C37.0959 4.48669 37.2205 4.5709 37.3443 4.6563L24 24L36.9705 4.40369Z" fill="#FF9100"/>
<path d="M37.3105 4.63306C37.4345 4.71824 37.5576 4.80461 37.6799 4.89215L24 24L37.3105 4.63306Z" fill="#FF9500"/>
<path d="M37.6465 4.86829C37.769 4.95562 37.8905 5.04412 38.0113 5.13379L24 24L37.6465 4.86829Z" fill="#FF9900"/>
<path d="M37.9783 5.10938C38.0992 5.19883 38.2193 5.28944 38.3384 5.3812L24 24L37.9783 5.10938Z" fill="#FF9D00"/>
<path d="M38.3059 5.3562C38.4252 5.44775 38.5436 5.54045 38.6612 5.63427L24 24L38.3059 5.3562Z" fill="#FFA200"/>
<path d="M38.6291 5.6087C38.7468 5.70232 38.8636 5.79707 38.9795 5.89294L24 24L38.6291 5.6087Z" fill="#FFA600"/>
<path d="M38.9478 5.86682C39.0639 5.96248 39.179 6.05925 39.2932 6.15712L24 24L38.9478 5.86682Z" fill="#FFAA00"/>
<path d="M39.262 6.13043C39.3764 6.2281 39.4898 6.32687 39.6023 6.42672L24 24L39.262 6.13043Z" fill="#FFAE00"/>
<path d="M39.5716 6.39954C39.6842 6.49919 39.7959 6.59992 39.9066 6.70171L24 24L39.5716 6.39954Z" fill="#FFB300"/>
<path d="M39.8764 6.67401C39.9872 6.77561 40.0971 6.87828 40.206 6.98199L24 24L39.8764 6.67401Z" fill="#FFB700"/>
<path d="M40.1763 6.95367C40.2854 7.0572 40.3935 7.16176 40.5006 7.26736L24 24L40.1763 6.95367Z" fill="#FFBB00"/>
<path d="M40.1763 6.95367C40.2854 7.0572 40.3935 7.16176 40.5006 7.26736L24 24L40.1763 6.95367Z" fill="#FFBB00"/>
<path d="M40.4714 7.23859C40.5786 7.344 40.6849 7.45043 40.7901 7.55788L24 24L40.4714 7.23859Z" fill="#FFBF00"/>
<path d="M40.7614 7.52863C40.8668 7.63589 40.9712 7.74417 41.0745 7.85344L24 24L40.7614 7.52863Z" fill="#FFC400"/>
<path d="M41.0463 7.82367C41.1498 7.93276 41.2523 8.04284 41.3537 8.1539L24 24L41.0463 7.82367Z" fill="#FFC800"/>
<path d="M41.326 8.1236C41.4276 8.23448 41.5281 8.34633 41.6276 8.45914L24 24L41.326 8.1236Z" fill="#FFCC00"/>
<path d="M41.6005 8.42847C41.7001 8.5411 41.7987 8.65469 41.8961 8.76922L24 24L41.6005 8.42847Z" fill="#FFD000"/>
<path d="M41.8695 8.73798C41.9672 8.85233 42.0638 8.96763 42.1592 9.08384L24 24L41.8695 8.73798Z" fill="#FFD500"/>
<path d="M42.1332 9.05219C42.2288 9.16823 42.3234 9.28519 42.4168 9.40305L24 24L42.1332 9.05219Z" fill="#FFD900"/>
<path d="M42.3913 9.37091C42.4849 9.48861 42.5774 9.6072 42.6687 9.72667L24 24L42.3913 9.37091Z" fill="#FFDD00"/>
<path d="M42.6438 9.69409C42.7353 9.8134 42.8258 9.93359 42.915 10.0546L24 24L42.6438 9.69409Z" fill="#FFE100"/>
<path d="M42.8906 10.0217C42.9801 10.1426 43.0684 10.2643 43.1555 10.3869L24 24L42.8906 10.0217Z" fill="#FFE600"/>
<path d="M43.1317 10.3535C43.219 10.4759 43.3052 10.5992 43.3902 10.7232L24 24L43.1317 10.3535Z" fill="#FFEA00"/>
<path d="M43.367 10.6895C43.4521 10.8134 43.5361 10.9381 43.6189 11.0637L24 24L43.367 10.6895Z" fill="#FFEE00"/>
<path d="M43.5963 11.0295C43.6793 11.1549 43.7611 11.2811 43.8417 11.4081L24 24L43.5963 11.0295Z" fill="#FFF200"/>
<path d="M43.8197 11.3735C43.9005 11.5003 43.9801 11.6279 44.0584 11.7563L24 24L43.8197 11.3735Z" fill="#FFF700"/>
<path d="M44.037 11.7213C44.1156 11.8495 44.193 11.9785 44.2691 12.1082L24 24L44.037 11.7213Z" fill="#FFFB00"/>
<path d="M44.2483 12.0729C44.3246 12.2025 44.3997 12.3328 44.4735 12.4638L24 24L44.2483 12.0729Z" fill="#FFFF00"/>
<path d="M44.4534 12.428C44.5274 12.5589 44.6002 12.6905 44.6717 12.8228L24 24L44.4534 12.428Z" fill="#FBFF00"/>
<path d="M44.6522 12.7867C44.724 12.9189 44.7944 13.0518 44.8637 13.1853L24 24L44.6522 12.7867Z" fill="#F7FF00"/>
<path d="M44.8447 13.1489C44.9142 13.2823 44.9824 13.4164 45.0492 13.5511L24 24L44.8447 13.1489Z" fill="#F2FF00"/>
<path d="M45.0309 13.5143C45.0981 13.6489 45.1639 13.7842 45.2284 13.92L24 24L45.0309 13.5143Z" fill="#EEFF00"/>
<path d="M45.2107 13.883C45.2755 14.0187 45.3389 14.1551 45.4011 14.2921L24 24L45.2107 13.883Z" fill="#EAFF00"/>
<path d="M45.3841 14.2547C45.4464 14.3915 45.5075 14.529 45.5672 14.667L24 24L45.3841 14.2547Z" fill="#E6FF00"/>
<path d="M45.5509 14.6294C45.6109 14.7673 45.6695 14.9058 45.7268 15.0448L24 24L45.5509 14.6294Z" fill="#E1FF00"/>
<path d="M45.7112 15.007C45.7687 15.1459 45.8249 15.2854 45.8798 15.4254L24 24L45.7112 15.007Z" fill="#DDFF00"/>
<path d="M45.8648 15.3872C45.9199 15.5271 45.9737 15.6676 46.0261 15.8085L24 24L45.8648 15.3872Z" fill="#D9FF00"/>
<path d="M46.0118 15.7701C46.0645 15.911 46.1158 16.0524 46.1657 16.1942L24 24L46.0118 15.7701Z" fill="#D5FF00"/>
<path d="M46.1521 16.1555C46.2023 16.2973 46.2511 16.4395 46.2986 16.5822L24 24L46.1521 16.1555Z" fill="#D0FF00"/>
<path d="M46.2856 16.5433C46.3333 16.686 46.3797 16.829 46.4246 16.9725L24 24L46.2856 16.5433Z" fill="#CCFF00"/>
<path d="M46.4123 16.9334C46.4576 17.0768 46.5014 17.2207 46.5439 17.365L24 24L46.4123 16.9334Z" fill="#C8FF00"/>
<path d="M46.5323 17.3256C46.575 17.4698 46.6163 17.6144 46.6562 17.7594L24 24L46.5323 17.3256Z" fill="#C4FF00"/>
<path d="M46.6453 17.7199C46.6855 17.8648 46.7243 18.0101 46.7617 18.1558L24 24L46.6453 17.7199Z" fill="#BFFF00"/>
<path d="M46.7515 18.1161C46.7891 18.2617 46.8254 18.4076 46.8602 18.5539L24 24L46.7515 18.1161Z" fill="#BBFF00"/>
<path d="M46.8507 18.514C46.8858 18.6603 46.9195 18.8068 46.9518 18.9537L24 24L46.8507 18.514Z" fill="#B7FF00"/>
<path d="M46.9429 18.9137C46.9755 19.0605 47.0066 19.2077 47.0364 19.3551L24 24L46.9429 18.9137Z" fill="#B3FF00"/>
<path d="M47.0282 19.3149C47.0582 19.4623 47.0868 19.6099 47.1139 19.7578L24 24L47.0282 19.3149Z" fill="#AEFF00"/>
<path d="M47.1065 19.7175C47.1339 19.8653 47.1599 20.0135 47.1844 20.1618L24 24L47.1065 19.7175Z" fill="#AAFF00"/>
<path d="M47.1777 20.1214C47.2025 20.2697 47.2259 20.4183 47.2479 20.5671L24 24L47.1777 20.1214Z" fill="#A6FF00"/>
<path d="M47.2419 20.5265C47.2641 20.6752 47.2849 20.8242 47.3043 20.9733L24 24L47.2419 20.5265Z" fill="#A2FF00"/>
<path d="M47.2989 20.9326C47.3186 21.0817 47.3368 21.231 47.3535 21.3805L24 24L47.2989 20.9326Z" fill="#9EFF00"/>
<path d="M47.3489 21.3397C47.366 21.4891 47.3815 21.6387 47.3957 21.7885L24 24L47.3489 21.3397Z" fill="#99FF00"/>
<path d="M47.3918 21.7476C47.4062 21.8973 47.4192 22.0471 47.4307 22.1971L24 24L47.3918 21.7476Z" fill="#95FF00"/>
<path d="M47.4275 22.1562C47.4393 22.3061 47.4497 22.4562 47.4586 22.6063L24 24L47.4275 22.1562Z" fill="#91FF00"/>
<path d="M47.4562 22.5654C47.4653 22.7155 47.4731 22.8657 47.4794 23.0159L24 24L47.4562 22.5654Z" fill="#8CFF00"/>
<path d="M47.4776 22.975C47.4842 23.1252 47.4893 23.2755 47.493 23.4259L24 24L47.4776 22.975Z" fill="#88FF00"/>
<path d="M47.4919 23.3848C47.4959 23.5352 47.4984 23.6855 47.4994 23.8359L24 24L47.4919 23.3848Z" fill="#84FF00"/>
<path d="M47.4991 23.7949C47.5004 23.9453 47.5003 24.0957 47.4987 24.2461L24 24L47.4991 23.7949Z" fill="#80FF00"/>
<path d="M47.4991 24.2051C47.4978 24.3555 47.495 24.5058 47.4908 24.6562L24 24L47.4991 24.2051Z" fill="#7BFF00"/>
<path d="M47.4919 24.6152C47.488 24.7655 47.4826 24.9158 47.4758 25.066L24 24L47.4919 24.6152Z" fill="#77FF00"/>
<path d="M47.4776 25.0251C47.4711 25.1753 47.4631 25.3255 47.4536 25.4756L24 24L47.4776 25.0251Z" fill="#73FF00"/>
<path d="M47.4562 25.4346C47.447 25.5848 47.4364 25.7348 47.4243 25.8847L24 24L47.4562 25.4346Z" fill="#6FFF00"/>
<path d="M47.4275 25.8438C47.4158 25.9937 47.4025 26.1435 47.3878 26.2932L24 24L47.4275 25.8438Z" fill="#6AFF00"/>
<path d="M47.3918 26.2524C47.3774 26.4021 47.3615 26.5516 47.3443 26.701L24 24L47.3918 26.2524Z" fill="#66FF00"/>
<path d="M47.3489 26.6603C47.3319 26.8097 47.3134 26.959 47.2936 27.108L24 24L47.3489 26.6603Z" fill="#62FF00"/>
<path d="M47.2989 27.0674C47.2793 27.2165 47.2583 27.3654 47.2358 27.5141L24 24L47.2989 27.0674Z" fill="#5EFF00"/>
<path d="M47.2419 27.4735C47.2196 27.6223 47.196 27.7708 47.1709 27.9191L24 24L47.2419 27.4735Z" fill="#59FF00"/>
<path d="M47.1777 27.8786C47.1529 28.0269 47.1266 28.175 47.099 28.3229L24 24L47.1777 27.8786Z" fill="#55FF00"/>
<path d="M47.1065 28.2825C47.0791 28.4304 47.0502 28.578 47.02 28.7253L24 24L47.1065 28.2825Z" fill="#51FF00"/>
<path d="M47.0282 28.6851C46.9982 28.8325 46.9668 28.9796 46.934 29.1264L24 24L47.0282 28.6851Z" fill="#4DFF00"/>
<path d="M46.9429 29.0863C46.9104 29.2332 46.8764 29.3797 46.8411 29.5258L24 24L46.9429 29.0863Z" fill="#48FF00"/>
<path d="M46.8507 29.486C46.8156 29.6322 46.7791 29.7781 46.7412 29.9236L24 24L46.8507 29.486Z" fill="#44FF00"/>
<path d="M46.7515 29.8839C46.7138 30.0295 46.6748 30.1748 46.6343 30.3196L24 24L46.7515 29.8839Z" fill="#40FF00"/>
<path d="M46.6453 30.2801C46.6051 30.425 46.5635 30.5696 46.5206 30.7137L24 24L46.6453 30.2801Z" fill="#3CFF00"/>
<path d="M46.5323 30.6744C46.4895 30.8186 46.4454 30.9623 46.4 31.1057L24 24L46.5323 30.6744Z" fill="#37FF00"/>
<path d="M46.4123 31.0666C46.3671 31.21 46.3205 31.353 46.2726 31.4955L24 24L46.4123 31.0666Z" fill="#33FF00"/>
<path d="M46.2856 31.4567C46.2379 31.5993 46.1888 31.7414 46.1383 31.8831L24 24L46.2856 31.4567Z" fill="#2FFF00"/>
<path d="M46.1521 31.8445C46.1019 31.9862 46.0503 32.1275 45.9974 32.2683L24 24L46.1521 31.8445Z" fill="#2BFF00"/>
<path d="M46.0118 32.2299C45.9591 32.3707 45.9051 32.5111 45.8497 32.6509L24 24L46.0118 32.2299Z" fill="#26FF00"/>
<path d="M45.8648 32.6128C45.8097 32.7527 45.7532 32.8921 45.6954 33.0309L24 24L45.8648 32.6128Z" fill="#22FF00"/>
<path d="M45.7112 32.9931C45.6536 33.132 45.5947 33.2704 45.5345 33.4082L24 24L45.7112 32.9931Z" fill="#1EFF00"/>
<path d="M45.5509 33.3706C45.4909 33.5085 45.4296 33.6459 45.367 33.7826L24 24L45.5509 33.3706Z" fill="#1AFF00"/>
<path d="M45.3841 33.7453C45.3217 33.8821 45.258 34.0184 45.1931 34.154L24 24L45.3841 33.7453Z" fill="#15FF00"/>
<path d="M45.2107 34.117C45.146 34.2527 45.08 34.3879 45.0126 34.5223L24 24L45.2107 34.117Z" fill="#11FF00"/>
<path d="M45.0309 34.4856C44.9638 34.6202 44.8954 34.7542 44.8258 34.8875L24 24L45.0309 34.4856Z" fill="#0DFF00"/>
<path d="M44.8447 34.8511C44.7753 34.9845 44.7046 35.1172 44.6326 35.2493L24 24L44.8447 34.8511Z" fill="#09FF00"/>
<path d="M44.6522 35.2132C44.5804 35.3454 44.5074 35.4769 44.4331 35.6076L24 24L44.6522 35.2132Z" fill="#04FF00"/>
<path d="M44.4534 35.5719C44.3793 35.7028 44.304 35.833 44.2274 35.9625L24 24L44.4534 35.5719Z" fill="#00FF00"/>
<path d="M44.2483 35.9271C44.1719 36.0567 44.0944 36.1856 44.0156 36.3137L24 24L44.2483 35.9271Z" fill="#00FF04"/>
<path d="M44.037 36.2787C43.9585 36.4069 43.8786 36.5344 43.7976 36.6611L24 24L44.037 36.2787Z" fill="#00FF09"/>
<path d="M43.8197 36.6265C43.7389 36.7534 43.6569 36.8794 43.5736 37.0047L24 24L43.8197 36.6265Z" fill="#00FF0D"/>
<path d="M43.5963 36.9705C43.5133 37.0959 43.4291 37.2205 43.3437 37.3443L24 24L43.5963 36.9705Z" fill="#00FF11"/>
<path d="M43.367 37.3105C43.2818 37.4345 43.1954 37.5576 43.1079 37.6799L24 24L43.367 37.3105Z" fill="#00FF15"/>
<path d="M43.1317 37.6465C43.0444 37.7689 42.9559 37.8905 42.8662 38.0113L24 24L43.1317 37.6465Z" fill="#00FF1A"/>
<path d="M42.8906 37.9783C42.8012 38.0992 42.7106 38.2193 42.6188 38.3384L24 24L42.8906 37.9783Z" fill="#00FF1E"/>
<path d="M42.6438 38.3059C42.5522 38.4252 42.4595 38.5436 42.3657 38.6612L24 24L42.6438 38.3059Z" fill="#00FF22"/>
<path d="M42.3913 38.6291C42.2977 38.7468 42.2029 38.8636 42.1071 38.9795L24 24L42.3913 38.6291Z" fill="#00FF26"/>
<path d="M42.1332 38.9478C42.0375 39.0639 41.9407 39.179 41.8429 39.2932L24 24L42.1332 38.9478Z" fill="#00FF2B"/>
<path d="M41.8695 39.262C41.7719 39.3764 41.6731 39.4898 41.5732 39.6023L24 24L41.8695 39.262Z" fill="#00FF2F"/>
<path d="M41.6005 39.5716C41.5008 39.6842 41.4001 39.7959 41.2983 39.9066L24 24L41.6005 39.5716Z" fill="#00FF33"/>
<path d="M41.326 39.8764C41.2244 39.9872 41.1217 40.0971 41.018 40.2061L24 24L41.326 39.8764Z" fill="#00FF37"/>
<path d="M41.0463 40.1763C40.9428 40.2854 40.8382 40.3935 40.7326 40.5006L24 24L41.0463 40.1763Z" fill="#00FF3C"/>
<path d="M40.7614 40.4714C40.656 40.5786 40.5495 40.6849 40.4421 40.7901L24 24L40.7614 40.4714Z" fill="#00FF40"/>
<path d="M40.4714 40.7614C40.3641 40.8668 40.2558 40.9712 40.1466 41.0745L24 24L40.4714 40.7614Z" fill="#00FF44"/>
<path d="M40.1763 41.0463C40.0672 41.1498 39.9572 41.2523 39.8461 41.3537L24 24L40.1763 41.0463Z" fill="#00FF48"/>
<path d="M39.8764 41.326C39.7655 41.4276 39.6536 41.5281 39.5408 41.6276L24 24L39.8764 41.326Z" fill="#00FF4D"/>
<path d="M39.5716 41.6005C39.4589 41.7001 39.3453 41.7987 39.2308 41.8961L24 24L39.5716 41.6005Z" fill="#00FF51"/>
<path d="M39.262 41.8695C39.1477 41.9672 39.0324 42.0638 38.9162 42.1592L24 24L39.262 41.8695Z" fill="#00FF55"/>
<path d="M38.9478 42.1332C38.8318 42.2288 38.7148 42.3234 38.597 42.4168L24 24L38.9478 42.1332Z" fill="#00FF59"/>
<path d="M38.6291 42.3913C38.5114 42.4849 38.3928 42.5774 38.2733 42.6687L24 24L38.6291 42.3913Z" fill="#00FF5E"/>
<path d="M38.3059 42.6438C38.1866 42.7353 38.0664 42.8257 37.9453 42.915L24 24L38.3059 42.6438Z" fill="#00FF62"/>
<path d="M37.9783 42.8906C37.8574 42.9801 37.7357 43.0684 37.6131 43.1555L24 24L37.9783 42.8906Z" fill="#00FF66"/>
<path d="M37.6465 43.1317C37.5241 43.219 37.4008 43.3052 37.2767 43.3902L24 24L37.6465 43.1317Z" fill="#00FF6A"/>
<path d="M37.3105 43.367C37.1866 43.4521 37.0618 43.5361 36.9363 43.6189L24 24L37.3105 43.367Z" fill="#00FF6F"/>
<path d="M36.9705 43.5963C36.8451 43.6793 36.7189 43.7611 36.5919 43.8417L24 24L36.9705 43.5963Z" fill="#00FF73"/>
<path d="M36.6265 43.8197C36.4997 43.9005 36.3721 43.9801 36.2437 44.0584L24 24L36.6265 43.8197Z" fill="#00FF77"/>
<path d="M36.2787 44.037C36.1505 44.1156 36.0215 44.193 35.8918 44.2691L24 24L36.2787 44.037Z" fill="#00FF7B"/>
<path d="M35.9271 44.2483C35.7976 44.3246 35.6673 44.3997 35.5362 44.4735L24 24L35.9271 44.2483Z" fill="#00FF80"/>
<path d="M35.5719 44.4534C35.4411 44.5274 35.3095 44.6002 35.1772 44.6717L24 24L35.5719 44.4534Z" fill="#00FF84"/>
<path d="M35.2132 44.6522C35.0811 44.724 34.9482 44.7944 34.8147 44.8637L24 24L35.2132 44.6522Z" fill="#00FF88"/>
<path d="M34.8511 44.8447C34.7177 44.9142 34.5836 44.9823 34.4489 45.0492L24 24L34.8511 44.8447Z" fill="#00FF8C"/>
<path d="M34.4856 45.0309C34.3511 45.0981 34.2158 45.1639 34.08 45.2284L24 24L34.4856 45.0309Z" fill="#00FF91"/>
<path d="M34.117 45.2107C33.9813 45.2755 33.8449 45.3389 33.708 45.4011L24 24L34.117 45.2107Z" fill="#00FF95"/>
<path d="M33.7453 45.3841C33.6084 45.4464 33.471 45.5075 33.333 45.5672L24 24L33.7453 45.3841Z" fill="#00FF99"/>
<path d="M33.3706 45.5509C33.2327 45.6109 33.0942 45.6695 32.9552 45.7268L24 24L33.3706 45.5509Z" fill="#00FF9D"/>
<path d="M32.9931 45.7112C32.8541 45.7687 32.7146 45.8249 32.5746 45.8798L24 24L32.9931 45.7112Z" fill="#00FFA2"/>
<path d="M32.6128 45.8648C32.4728 45.9199 32.3324 45.9737 32.1914 46.0261L24 24L32.6128 45.8648Z" fill="#00FFA6"/>
<path d="M32.2299 46.0118C32.089 46.0645 31.9476 46.1158 31.8058 46.1657L24 24L32.2299 46.0118Z" fill="#00FFAA"/>
<path d="M31.8445 46.1521C31.7027 46.2023 31.5605 46.2511 31.4178 46.2986L24 24L31.8445 46.1521Z" fill="#00FFAE"/>
<path d="M31.4567 46.2856C31.314 46.3333 31.171 46.3797 31.0275 46.4246L24 24L31.4567 46.2856Z" fill="#00FFB3"/>
<path d="M31.0666 46.4123C30.9232 46.4576 30.7793 46.5014 30.635 46.5439L24 24L31.0666 46.4123Z" fill="#00FFB7"/>
<path d="M30.6744 46.5323C30.5302 46.575 30.3856 46.6163 30.2406 46.6562L24 24L30.6744 46.5323Z" fill="#00FFBB"/>
<path d="M30.2801 46.6453C30.1352 46.6855 29.9899 46.7243 29.8442 46.7617L24 24L30.2801 46.6453Z" fill="#00FFBF"/>
<path d="M29.8839 46.7515C29.7383 46.7891 29.5924 46.8254 29.4461 46.8602L24 24L29.8839 46.7515Z" fill="#00FFC4"/>
<path d="M29.486 46.8507C29.3397 46.8858 29.1932 46.9195 29.0463 46.9518L24 24L29.486 46.8507Z" fill="#00FFC8"/>
<path d="M29.0863 46.9429C28.9395 46.9755 28.7924 47.0066 28.6449 47.0364L24 24L29.0863 46.9429Z" fill="#00FFCC"/>
<path d="M28.6851 47.0282C28.5378 47.0582 28.3901 47.0868 28.2422 47.1139L24 24L28.6851 47.0282Z" fill="#00FFD0"/>
<path d="M28.2825 47.1065C28.1347 47.1339 27.9865 47.1599 27.8382 47.1844L24 24L28.2825 47.1065Z" fill="#00FFD5"/>
<path d="M27.8786 47.1777C27.7303 47.2025 27.5817 47.2259 27.4329 47.2479L24 24L27.8786 47.1777Z" fill="#00FFD9"/>
<path d="M27.4735 47.2419C27.3248 47.2641 27.1758 47.2849 27.0267 47.3043L24 24L27.4735 47.2419Z" fill="#00FFDD"/>
<path d="M27.0674 47.2989C26.9183 47.3186 26.769 47.3368 26.6195 47.3535L24 24L27.0674 47.2989Z" fill="#00FFE1"/>
<path d="M26.6603 47.3489C26.5109 47.366 26.3613 47.3815 26.2115 47.3957L24 24L26.6603 47.3489Z" fill="#00FFE6"/>
<path d="M26.2524 47.3918C26.1027 47.4062 25.9528 47.4192 25.8029 47.4307L24 24L26.2524 47.3918Z" fill="#00FFEA"/>
<path d="M25.8438 47.4275C25.6939 47.4393 25.5438 47.4497 25.3937 47.4586L24 24L25.8438 47.4275Z" fill="#00FFEE"/>
<path d="M25.4346 47.4562C25.2845 47.4653 25.1343 47.4731 24.9841 47.4794L24 24L25.4346 47.4562Z" fill="#00FFF2"/>
<path d="M25.0251 47.4776C24.8748 47.4842 24.7245 47.4893 24.5742 47.493L24 24L25.0251 47.4776Z" fill="#00FFF7"/>
<path d="M24.6152 47.4919C24.4648 47.4959 24.3144 47.4984 24.1641 47.4994L24 24L24.6152 47.4919Z" fill="#00FFFB"/>
<path d="M24.2051 47.4991C24.0547 47.5004 23.9043 47.5003 23.7539 47.4987L24 24L24.2051 47.4991Z" fill="#00FFFF"/>
<path d="M23.7949 47.4991C23.6445 47.4978 23.4942 47.495 23.3438 47.4908L24 24L23.7949 47.4991Z" fill="#00FBFF"/>
<path d="M23.3848 47.4919C23.2345 47.488 23.0842 47.4826 22.934 47.4758L24 24L23.3848 47.4919Z" fill="#00F7FF"/>
<path d="M22.9749 47.4776C22.8247 47.4711 22.6745 47.4631 22.5244 47.4536L24 24L22.9749 47.4776Z" fill="#00F2FF"/>
<path d="M22.5653 47.4562C22.4152 47.447 22.2652 47.4364 22.1153 47.4243L24 24L22.5653 47.4562Z" fill="#00EEFF"/>
<path d="M22.1562 47.4275C22.0063 47.4158 21.8565 47.4025 21.7068 47.3878L24 24L22.1562 47.4275Z" fill="#00EAFF"/>
<path d="M21.7476 47.3918C21.5979 47.3774 21.4483 47.3615 21.299 47.3442L24 24L21.7476 47.3918Z" fill="#00E6FF"/>
<path d="M21.3397 47.3489C21.1903 47.3319 21.041 47.3134 20.892 47.2936L24 24L21.3397 47.3489Z" fill="#00E1FF"/>
<path d="M20.9326 47.2989C20.7835 47.2793 20.6346 47.2583 20.4859 47.2358L24 24L20.9326 47.2989Z" fill="#00DDFF"/>
<path d="M20.5265 47.2419C20.3777 47.2196 20.2292 47.196 20.0809 47.1709L24 24L20.5265 47.2419Z" fill="#00D9FF"/>
<path d="M20.1214 47.1777C19.9731 47.1529 19.825 47.1266 19.6772 47.099L24 24L20.1214 47.1777Z" fill="#00D5FF"/>
<path d="M19.7175 47.1065C19.5696 47.0791 19.422 47.0502 19.2747 47.02L24 24L19.7175 47.1065Z" fill="#00D0FF"/>
<path d="M19.3148 47.0282C19.1675 46.9982 19.0204 46.9668 18.8736 46.934L24 24L19.3148 47.0282Z" fill="#00CCFF"/>
<path d="M18.9137 46.9429C18.7668 46.9104 18.6203 46.8764 18.4742 46.8411L24 24L18.9137 46.9429Z" fill="#00C8FF"/>
<path d="M18.514 46.8507C18.3678 46.8156 18.2219 46.7791 18.0764 46.7412L24 24L18.514 46.8507Z" fill="#00C4FF"/>
<path d="M18.116 46.7515C17.9704 46.7138 17.8252 46.6748 17.6804 46.6343L24 24L18.116 46.7515Z" fill="#00BFFF"/>
<path d="M17.7199 46.6453C17.575 46.6051 17.4304 46.5635 17.2863 46.5206L24 24L17.7199 46.6453Z" fill="#00BBFF"/>
<path d="M17.3256 46.5323C17.1815 46.4895 17.0377 46.4454 16.8943 46.4L24 24L17.3256 46.5323Z" fill="#00B7FF"/>
<path d="M16.9334 46.4123C16.79 46.3671 16.647 46.3205 16.5045 46.2725L24 24L16.9334 46.4123Z" fill="#00B3FF"/>
<path d="M16.5433 46.2856C16.4007 46.2379 16.2586 46.1888 16.1169 46.1383L24 24L16.5433 46.2856Z" fill="#00AEFF"/>
<path d="M16.1555 46.1521C16.0138 46.1019 15.8725 46.0503 15.7317 45.9974L24 24L16.1555 46.1521Z" fill="#00AAFF"/>
<path d="M15.7701 46.0118C15.6292 45.9591 15.4889 45.9051 15.3491 45.8497L24 24L15.7701 46.0118Z" fill="#00A6FF"/>
<path d="M15.3872 45.8648C15.2473 45.8097 15.1079 45.7532 14.9691 45.6954L24 24L15.3872 45.8648Z" fill="#00A2FF"/>
<path d="M15.0069 45.7112C14.868 45.6536 14.7296 45.5947 14.5918 45.5345L24 24L15.0069 45.7112Z" fill="#009DFF"/>
<path d="M14.6294 45.5509C14.4915 45.4909 14.3541 45.4296 14.2174 45.367L24 24L14.6294 45.5509Z" fill="#0099FF"/>
<path d="M14.2547 45.3841C14.1179 45.3217 13.9816 45.258 13.846 45.1931L24 24L14.2547 45.3841Z" fill="#0095FF"/>
<path d="M13.883 45.2107C13.7472 45.146 13.6121 45.08 13.4777 45.0126L24 24L13.883 45.2107Z" fill="#0091FF"/>
<path d="M13.5143 45.0309C13.3797 44.9638 13.2458 44.8954 13.1125 44.8258L24 24L13.5143 45.0309Z" fill="#008CFF"/>
<path d="M13.1489 44.8447C13.0155 44.7753 12.8828 44.7046 12.7507 44.6326L24 24L13.1489 44.8447Z" fill="#0088FF"/>
<path d="M12.7868 44.6522C12.6546 44.5804 12.5231 44.5074 12.3924 44.4331L24 24L12.7868 44.6522Z" fill="#0084FF"/>
<path d="M12.428 44.4534C12.2971 44.3793 12.167 44.304 12.0375 44.2274L24 24L12.428 44.4534Z" fill="#0080FF"/>
<path d="M12.0728 44.2483C11.9432 44.172 11.8144 44.0944 11.6863 44.0156L24 24L12.0728 44.2483Z" fill="#007BFF"/>
<path d="M11.7213 44.037C11.5931 43.9585 11.4656 43.8786 11.3389 43.7976L24 24L11.7213 44.037Z" fill="#0077FF"/>
<path d="M11.3735 43.8197C11.2466 43.7389 11.1206 43.6569 10.9953 43.5736L24 24L11.3735 43.8197Z" fill="#0072FF"/>
<path d="M11.0295 43.5963C10.9041 43.5133 10.7795 43.4291 10.6557 43.3437L24 24L11.0295 43.5963Z" fill="#006FFF"/>
<path d="M10.6894 43.367C10.5655 43.2818 10.4424 43.1954 10.3201 43.1079L24 24L10.6894 43.367Z" fill="#006AFF"/>
<path d="M10.3535 43.1317C10.231 43.0444 10.1094 42.9559 9.98871 42.8662L24 24L10.3535 43.1317Z" fill="#0066FF"/>
<path d="M10.0217 42.8906C9.90077 42.8012 9.78074 42.7106 9.66159 42.6188L24 24L10.0217 42.8906Z" fill="#0062FF"/>
<path d="M9.69408 42.6438C9.57477 42.5522 9.45634 42.4595 9.33881 42.3657L24 24L9.69408 42.6438Z" fill="#005EFF"/>
<path d="M9.37091 42.3913C9.25321 42.2977 9.13642 42.2029 9.02054 42.1071L24 24L9.37091 42.3913Z" fill="#0059FF"/>
<path d="M9.05214 42.1332C8.9361 42.0375 8.82097 41.9407 8.70679 41.8429L24 24L9.05214 42.1332Z" fill="#0055FF"/>
<path d="M8.73797 41.8695C8.62361 41.7719 8.5102 41.6731 8.39774 41.5733L24 24L8.73797 41.8695Z" fill="#0051FF"/>
<path d="M8.42843 41.6005C8.31579 41.5008 8.20412 41.4001 8.09341 41.2983L24 24L8.42843 41.6005Z" fill="#004DFF"/>
<path d="M8.12362 41.326C8.01274 41.2244 7.90285 41.1217 7.79395 41.018L24 24L8.12362 41.326Z" fill="#0048FF"/>
<path d="M7.82365 41.0463C7.71456 40.9428 7.60647 40.8382 7.49939 40.7326L24 24L7.82365 41.0463Z" fill="#0044FF"/>
<path d="M7.52864 40.7614C7.42137 40.656 7.31512 40.5495 7.2099 40.4421L24 24L7.52864 40.7614Z" fill="#0040FF"/>
<path d="M7.23863 40.4714C7.13322 40.3641 7.02884 40.2558 6.92551 40.1465L24 24L7.23863 40.4714Z" fill="#003CFF"/>
<path d="M6.9537 40.1763C6.85018 40.0672 6.74771 39.9572 6.6463 39.8461L24 24L6.9537 40.1763Z" fill="#0037FF"/>
<path d="M6.67397 39.8764C6.57237 39.7655 6.47183 39.6536 6.37238 39.5408L24 24L6.67397 39.8764Z" fill="#0033FF"/>
<path d="M6.39954 39.5716C6.29989 39.4589 6.20132 39.3453 6.10385 39.2308L24 24L6.39954 39.5716Z" fill="#002FFF"/>
<path d="M6.13046 39.262C6.03279 39.1477 5.93622 39.0324 5.84076 38.9162L24 24L6.13046 39.262Z" fill="#002BFF"/>
<path d="M5.86681 38.9478C5.77115 38.8318 5.67661 38.7148 5.58319 38.597L24 24L5.86681 38.9478Z" fill="#0026FF"/>
<path d="M5.60872 38.6291C5.5151 38.5114 5.42261 38.3928 5.33127 38.2733L24 24L5.60872 38.6291Z" fill="#0022FF"/>
<path d="M5.35619 38.3059C5.26464 38.1866 5.17424 38.0664 5.08499 37.9453L24 24L5.35619 38.3059Z" fill="#001EFF"/>
<path d="M5.10935 37.9783C5.01989 37.8574 4.9316 37.7357 4.84448 37.6131L24 24L5.10935 37.9783Z" fill="#001AFF"/>
<path d="M4.86828 37.6465C4.78095 37.5241 4.6948 37.4008 4.60983 37.2767L24 24L4.86828 37.6465Z" fill="#0015FF"/>
<path d="M4.63303 37.3105C4.54785 37.1866 4.46386 37.0618 4.38107 36.9363L24 24L4.63303 37.3105Z" fill="#0011FF"/>
<path d="M4.40368 36.9705C4.32068 36.8451 4.23888 36.7189 4.15829 36.5919L24 24L4.40368 36.9705Z" fill="#000DFF"/>
<path d="M4.1803 36.6265C4.0995 36.4997 4.01991 36.3721 3.94156 36.2437L24 24L4.1803 36.6265Z" fill="#0009FF"/>
<path d="M3.96295 36.2787C3.88438 36.1505 3.80703 36.0215 3.73093 35.8918L24 24L3.96295 36.2787Z" fill="#0004FF"/>
<path d="M3.7517 35.9271C3.67537 35.7976 3.60029 35.6673 3.52646 35.5362L24 24L3.7517 35.9271Z" fill="#0000FF"/>
<path d="M3.54663 35.5719C3.47257 35.4411 3.39978 35.3095 3.32825 35.1772L24 24L3.54663 35.5719Z" fill="#0400FF"/>
<path d="M3.34778 35.2132C3.27602 35.0811 3.20553 34.9482 3.13632 34.8147L24 24L3.34778 35.2132Z" fill="#0900FF"/>
<path d="M3.15525 34.8511C3.0858 34.7177 3.01764 34.5836 2.95078 34.4489L24 24L3.15525 34.8511Z" fill="#0D00FF"/>
<path d="M2.96903 34.4856C2.90192 34.3511 2.83611 34.2158 2.77161 34.08L24 24L2.96903 34.4856Z" fill="#1100FF"/>
<path d="M2.78925 34.117C2.7245 33.9813 2.66106 33.8449 2.59894 33.708L24 24L2.78925 34.117Z" fill="#1500FF"/>
<path d="M2.61591 33.7453C2.55355 33.6084 2.4925 33.471 2.43277 33.333L24 24L2.61591 33.7453Z" fill="#1A00FF"/>
<path d="M2.44908 33.3706C2.38911 33.2327 2.33047 33.0942 2.27316 32.9552L24 24L2.44908 33.3706Z" fill="#1E00FF"/>
<path d="M2.28882 32.9931C2.23127 32.8541 2.17505 32.7146 2.12018 32.5746L24 24L2.28882 32.9931Z" fill="#2200FF"/>
<path d="M2.13519 32.6128C2.08007 32.4728 2.0263 32.3324 1.97388 32.1914L24 24L2.13519 32.6128Z" fill="#2600FF"/>
<path d="M1.98819 32.2299C1.93553 32.089 1.88421 31.9476 1.83426 31.8058L24 24L1.98819 32.2299Z" fill="#2B00FF"/>
<path d="M1.84793 31.8445C1.79773 31.7027 1.74889 31.5605 1.70142 31.4177L24 24L1.84793 31.8445Z" fill="#2F00FF"/>
<path d="M1.71439 31.4567C1.66667 31.314 1.62032 31.171 1.57535 31.0275L24 24L1.71439 31.4567Z" fill="#3300FF"/>
<path d="M1.58765 31.0666C1.54242 30.9232 1.49858 30.7793 1.45612 30.635L24 24L1.58765 31.0666Z" fill="#3700FF"/>
<path d="M1.46773 30.6744C1.42501 30.5302 1.38369 30.3856 1.34375 30.2406L24 24L1.46773 30.6744Z" fill="#3C00FF"/>
<path d="M1.35467 30.2801C1.31448 30.1352 1.27568 29.9899 1.23828 29.8442L24 24L1.35467 30.2801Z" fill="#4000FF"/>
<path d="M1.24853 29.8839C1.21088 29.7383 1.17462 29.5924 1.13977 29.4461L24 24L1.24853 29.8839Z" fill="#4400FF"/>
<path d="M1.14929 29.486C1.11418 29.3397 1.08048 29.1932 1.04819 29.0463L24 24L1.14929 29.486Z" fill="#4800FF"/>
<path d="M1.05704 29.0863C1.02449 28.9395 0.993349 28.7924 0.963623 28.6449L24 24L1.05704 29.0863Z" fill="#4D00FF"/>
<path d="M0.971777 28.6851C0.941794 28.5378 0.913226 28.3901 0.886078 28.2422L24 24L0.971777 28.6851Z" fill="#5100FF"/>
<path d="M0.893507 28.2825C0.866101 28.1347 0.840114 27.9865 0.815552 27.8382L24 24L0.893507 28.2825Z" fill="#5500FF"/>
<path d="M0.822294 27.8786C0.797472 27.7303 0.774075 27.5817 0.752106 27.433L24 24L0.822294 27.8786Z" fill="#5900FF"/>
<path d="M0.758139 27.4735C0.73591 27.3248 0.715109 27.1758 0.69574 27.0267L24 24L0.758139 27.4735Z" fill="#5E00FF"/>
<path d="M0.701046 27.0674C0.681416 26.9183 0.663218 26.769 0.646454 26.6195L24 24L0.701046 27.0674Z" fill="#6200FF"/>
<path d="M0.651046 26.6603C0.634021 26.5108 0.618432 26.3613 0.604279 26.2115L24 24L0.651046 26.6603Z" fill="#6600FF"/>
<path d="M0.608204 26.2524C0.59379 26.1027 0.580813 25.9528 0.569275 25.8029L24 24L0.608204 26.2524Z" fill="#6A00FF"/>
<path d="M0.57243 25.8438C0.56063 25.6939 0.55027 25.5438 0.541351 25.3937L24 24L0.57243 25.8438Z" fill="#6F00FF"/>
<path d="M0.543818 25.4346C0.534637 25.2845 0.526897 25.1343 0.520599 24.9841L24 24L0.543818 25.4346Z" fill="#7300FF"/>
<path d="M0.522371 25.0251C0.515811 24.8748 0.510693 24.7245 0.507019 24.5742L24 24L0.522371 25.0251Z" fill="#7700FF"/>
<path d="M0.50806 24.6152C0.504123 24.4648 0.50163 24.3144 0.50058 24.1641L24 24L0.50806 24.6152Z" fill="#7B00FF"/>
<path d="M0.500895 24.2051C0.499582 24.0547 0.499714 23.9043 0.501289 23.7539L24 24L0.500895 24.2051Z" fill="#8000FF"/>
<path d="M0.500885 23.7949C0.502197 23.6445 0.504953 23.4941 0.509152 23.3438L24 24L0.500885 23.7949Z" fill="#8400FF"/>
<path d="M0.508057 23.3848C0.511993 23.2345 0.517373 23.0842 0.524195 22.934L24 24L0.508057 23.3848Z" fill="#8800FF"/>
<path d="M0.522369 22.9749C0.528929 22.8247 0.536931 22.6745 0.546374 22.5244L24 24L0.522369 22.9749Z" fill="#8C00FF"/>
<path d="M0.543823 22.5653C0.553004 22.4152 0.563626 22.2652 0.575687 22.1153L24 24L0.543823 22.5653Z" fill="#9100FF"/>
<path d="M0.572449 22.1562C0.584248 22.0063 0.597487 21.8565 0.612162 21.7068L24 24L0.572449 22.1562Z" fill="#9500FF"/>
<path d="M0.608185 21.7476C0.622599 21.5979 0.63845 21.4483 0.655735 21.299L24 24L0.608185 21.7476Z" fill="#9900FF"/>
<path d="M0.651062 21.3397C0.668087 21.1903 0.686545 21.041 0.706435 20.892L24 24L0.651062 21.3397Z" fill="#9D00FF"/>
<path d="M0.70105 20.9326C0.72068 20.7835 0.741741 20.6346 0.764229 20.4859L24 24L0.70105 20.9326Z" fill="#A200FF"/>
<path d="M0.758118 20.5265C0.780347 20.3777 0.804003 20.2292 0.829084 20.0809L24 24L0.758118 20.5265Z" fill="#A600FF"/>
<path d="M0.822296 20.1214C0.847118 19.973 0.873363 19.8249 0.901027 19.6771L24 24L0.822296 20.1214Z" fill="#AA00FF"/>
<path d="M0.893494 19.7175C0.9209 19.5696 0.949725 19.422 0.979965 19.2747L24 24L0.893494 19.7175Z" fill="#AE00FF"/>
<path d="M0.971771 19.3149C1.00175 19.1675 1.03315 19.0204 1.06596 18.8737L24 24L0.971771 19.3149Z" fill="#B300FF"/>
<path d="M1.05704 18.9136C1.08959 18.7668 1.12355 18.6203 1.15891 18.4741L24 24L1.05704 18.9136Z" fill="#B700FF"/>
<path d="M1.14929 18.514C1.1844 18.3678 1.22091 18.2219 1.25882 18.0764L24 24L1.14929 18.514Z" fill="#BB00FF"/>
<path d="M1.24854 18.116C1.28619 17.9704 1.32524 17.8252 1.36568 17.6804L24 24L1.24854 18.116Z" fill="#BF00FF"/>
<path d="M1.35468 17.7199C1.39487 17.575 1.43645 17.4304 1.47941 17.2863L24 24L1.35468 17.7199Z" fill="#C400FF"/>
<path d="M1.46774 17.3257C1.51046 17.1815 1.55455 17.0377 1.60003 16.8943L24 24L1.46774 17.3257Z" fill="#C800FF"/>
<path d="M1.58765 16.9334C1.63287 16.79 1.67947 16.647 1.72744 16.5045L24 24L1.58765 16.9334Z" fill="#CC00FF"/>
<path d="M1.71439 16.5433C1.76211 16.4007 1.81119 16.2586 1.86164 16.1169L24 24L1.71439 16.5433Z" fill="#D000FF"/>
<path d="M1.84793 16.1555C1.89813 16.0137 1.94969 15.8725 2.00261 15.7317L24 24L1.84793 16.1555Z" fill="#D500FF"/>
<path d="M1.98819 15.7701C2.04086 15.6292 2.09488 15.4889 2.15024 15.3491L24 24L1.98819 15.7701Z" fill="#D900FF"/>
<path d="M2.13519 15.3872C2.19031 15.2473 2.24677 15.1079 2.30457 14.9691L24 24L2.13519 15.3872Z" fill="#DD00FF"/>
<path d="M2.28885 15.0069C2.3464 14.868 2.40529 14.7296 2.46549 14.5918L24 24L2.28885 15.0069Z" fill="#E100FF"/>
<path d="M2.4491 14.6294C2.50906 14.4915 2.57035 14.3541 2.63296 14.2174L24 24L2.4491 14.6294Z" fill="#E600FF"/>
<path d="M2.61591 14.2547C2.67827 14.1178 2.74195 13.9816 2.80693 13.8459L24 24L2.61591 14.2547Z" fill="#EA00FF"/>
<path d="M2.78925 13.883C2.85399 13.7472 2.92004 13.6121 2.98737 13.4777L24 24L2.78925 13.883Z" fill="#EE00FF"/>
<path d="M2.96906 13.5144C3.03616 13.3798 3.10455 13.2458 3.17423 13.1125L24 24L2.96906 13.5144Z" fill="#F200FF"/>
<path d="M3.15524 13.1489C3.22469 13.0155 3.29541 12.8828 3.3674 12.7507L24 24L3.15524 13.1489Z" fill="#F700FF"/>
<path d="M3.34781 12.7868C3.41957 12.6546 3.4926 12.5232 3.56688 12.3924L24 24L3.34781 12.7868Z" fill="#FB00FF"/>
<path d="M3.54663 12.4281C3.62069 12.2972 3.696 12.167 3.77255 12.0375L24 24L3.54663 12.4281Z" fill="#FF00FF"/>
<path d="M3.75171 12.0729C3.82804 11.9433 3.90561 11.8144 3.98441 11.6863L24 24L3.75171 12.0729Z" fill="#FF00FB"/>
<path d="M3.96295 11.7213C4.04153 11.593 4.12134 11.4656 4.20236 11.3389L24 24L3.96295 11.7213Z" fill="#FF00F7"/>
<path d="M4.1803 11.3735C4.2611 11.2466 4.34312 11.1206 4.42635 10.9953L24 24L4.1803 11.3735Z" fill="#FF00F2"/>
<path d="M4.40369 11.0294C4.48669 10.904 4.5709 10.7794 4.6563 10.6556L24 24L4.40369 11.0294Z" fill="#FF00EE"/>
<path d="M4.63303 10.6895C4.71821 10.5655 4.80458 10.4424 4.89212 10.3201L24 24L4.63303 10.6895Z" fill="#FF00EA"/>
<path d="M4.86829 10.3535C4.95562 10.231 5.04412 10.1094 5.13379 9.98871L24 24L4.86829 10.3535Z" fill="#FF00E6"/>
<path d="M5.10938 10.0216C5.19883 9.90074 5.28945 9.78071 5.38121 9.66156L24 24L5.10938 10.0216Z" fill="#FF00E1"/>
<path d="M5.3562 9.69408C5.44775 9.57477 5.54045 9.45634 5.63427 9.33881L24 24L5.3562 9.69408Z" fill="#FF00DD"/>
<path d="M5.6087 9.37088C5.70232 9.25318 5.79707 9.13639 5.89293 9.02051L24 24L5.6087 9.37088Z" fill="#FF00D9"/>
<path d="M5.86682 9.05214C5.96248 8.9361 6.05925 8.82097 6.15712 8.70679L24 24L5.86682 9.05214Z" fill="#FF00D5"/>
<path d="M6.13046 8.738C6.22813 8.62365 6.3269 8.51023 6.42675 8.39777L24 24L6.13046 8.738Z" fill="#FF00D0"/>
<path d="M6.39954 8.4284C6.49919 8.31576 6.59992 8.20409 6.70171 8.09338L24 24L6.39954 8.4284Z" fill="#FF00CC"/>
<path d="M6.67398 8.12362C6.77558 8.01274 6.87825 7.90285 6.98196 7.79395L24 24L6.67398 8.12362Z" fill="#FF00C8"/>
<path d="M6.9537 7.82365C7.05723 7.71456 7.16179 7.60647 7.26739 7.49939L24 24L6.9537 7.82365Z" fill="#FF00C4"/>
<path d="M7.23862 7.52864C7.34403 7.42137 7.45046 7.31512 7.55791 7.2099L24 24L7.23862 7.52864Z" fill="#FF00BF"/>
<path d="M7.52863 7.2386C7.63589 7.13319 7.74417 7.02881 7.85344 6.92548L24 24L7.52863 7.2386Z" fill="#FF00BB"/>
<path d="M7.82367 6.9537C7.93276 6.85018 8.04284 6.74771 8.1539 6.6463L24 24L7.82367 6.9537Z" fill="#FF00B7"/>
<path d="M8.12363 6.67397C8.23451 6.57237 8.34636 6.47183 8.45917 6.37238L24 24L8.12363 6.67397Z" fill="#FF00B3"/>
<path d="M8.42844 6.39957C8.54107 6.29992 8.65466 6.20135 8.76919 6.10388L24 24L8.42844 6.39957Z" fill="#FF00AE"/>
<path d="M8.73798 6.13046C8.85233 6.03279 8.96763 5.93622 9.08384 5.84076L24 24L8.73798 6.13046Z" fill="#FF00AA"/>
<path d="M9.05215 5.86681C9.1682 5.77115 9.28516 5.67661 9.40302 5.58319L24 24L9.05215 5.86681Z" fill="#FF00A6"/>
<path d="M9.37091 5.60875C9.48861 5.51513 9.6072 5.42264 9.72667 5.3313L24 24L9.37091 5.60875Z" fill="#FF00A2"/>
<path d="M9.69409 5.35622C9.8134 5.26467 9.93359 5.17427 10.0546 5.08502L24 24L9.69409 5.35622Z" fill="#FF009D"/>
<path d="M10.0217 5.10935C10.1426 5.01989 10.2643 4.9316 10.3869 4.84448L24 24L10.0217 5.10935Z" fill="#FF0099"/>
<path d="M10.3535 4.86825C10.4759 4.78092 10.5992 4.69477 10.7233 4.6098L24 24L10.3535 4.86825Z" fill="#FF0095"/>
<path d="M10.6895 4.63306C10.8134 4.54788 10.9381 4.46389 11.0637 4.3811L24 24L10.6895 4.63306Z" fill="#FF0091"/>
<path d="M11.0295 4.40371C11.1549 4.32071 11.2811 4.23891 11.4081 4.15833L24 24L11.0295 4.40371Z" fill="#FF008C"/>
<path d="M11.3734 4.18027C11.5003 4.09947 11.6279 4.01988 11.7563 3.94153L24 24L11.3734 4.18027Z" fill="#FF0088"/>
<path d="M11.7213 3.96298C11.8495 3.88441 11.9785 3.80706 12.1082 3.73096L24 24L11.7213 3.96298Z" fill="#FF0084"/>
<path d="M12.0728 3.75173C12.2024 3.6754 12.3327 3.60032 12.4638 3.52649L24 24L12.0728 3.75173Z" fill="#FF0080"/>
<path d="M12.428 3.54663C12.5589 3.47257 12.6905 3.39978 12.8228 3.32825L24 24L12.428 3.54663Z" fill="#FF007B"/>
<path d="M12.7868 3.34781C12.9189 3.27605 13.0518 3.20556 13.1853 3.13635L24 24L12.7868 3.34781Z" fill="#FF0077"/>
<path d="M13.1489 3.15528C13.2823 3.08584 13.4164 3.01767 13.5511 2.95081L24 24L13.1489 3.15528Z" fill="#FF0073"/>
<path d="M13.5143 2.96903C13.6489 2.90192 13.7842 2.83611 13.92 2.77161L24 24L13.5143 2.96903Z" fill="#FF006F"/>
<path d="M13.883 2.78925C14.0187 2.7245 14.1551 2.66106 14.2921 2.59894L24 24L13.883 2.78925Z" fill="#FF006A"/>
<path d="M14.2547 2.61594C14.3915 2.55358 14.529 2.49253 14.667 2.4328L24 24L14.2547 2.61594Z" fill="#FF0066"/>
<path d="M14.6294 2.44911C14.7673 2.38915 14.9058 2.3305 15.0448 2.27319L24 24L14.6294 2.44911Z" fill="#FF0062"/>
<path d="M15.0069 2.28882C15.1459 2.23127 15.2854 2.17505 15.4254 2.12018L24 24L15.0069 2.28882Z" fill="#FF005E"/>
<path d="M15.3872 2.13519C15.5271 2.08007 15.6676 2.0263 15.8085 1.97388L24 24L15.3872 2.13519Z" fill="#FF0059"/>
<path d="M15.7701 1.98823C15.911 1.93556 16.0523 1.88424 16.1942 1.83429L24 24L15.7701 1.98823Z" fill="#FF0055"/>
<path d="M16.1555 1.84793C16.2973 1.79773 16.4395 1.74889 16.5822 1.70142L24 24L16.1555 1.84793Z" fill="#FF0051"/>
<path d="M16.5433 1.71436C16.686 1.66664 16.829 1.62029 16.9725 1.57532L24 24L16.5433 1.71436Z" fill="#FF004D"/>
<path d="M16.9334 1.58765C17.0768 1.54242 17.2207 1.49858 17.365 1.45612L24 24L16.9334 1.58765Z" fill="#FF0048"/>
<path d="M17.3256 1.46773C17.4698 1.42501 17.6144 1.38369 17.7594 1.34375L24 24L17.3256 1.46773Z" fill="#FF0044"/>
<path d="M17.7199 1.35467C17.8648 1.31448 18.0101 1.27568 18.1558 1.23828L24 24L17.7199 1.35467Z" fill="#FF0040"/>
<path d="M18.1161 1.24853C18.2617 1.21088 18.4076 1.17462 18.5539 1.13977L24 24L18.1161 1.24853Z" fill="#FF003C"/>
<path d="M18.514 1.14932C18.6603 1.11422 18.8068 1.08051 18.9537 1.04822L24 24L18.514 1.14932Z" fill="#FF0037"/>
<path d="M18.9137 1.05704C19.0605 1.02449 19.2076 0.993349 19.355 0.963623L24 24L18.9137 1.05704Z" fill="#FF0033"/>
<path d="M19.3148 0.971746C19.4622 0.941763 19.6099 0.913196 19.7578 0.886047L24 24L19.3148 0.971746Z" fill="#FF002F"/>
<path d="M19.7175 0.893507C19.8653 0.866101 20.0135 0.840114 20.1618 0.815552L24 24L19.7175 0.893507Z" fill="#FF002B"/>
<path d="M20.1214 0.822263C20.2697 0.797442 20.4183 0.774045 20.567 0.752075L24 24L20.1214 0.822263Z" fill="#FF0026"/>
<path d="M20.5265 0.758139C20.6752 0.73591 20.8242 0.715109 20.9733 0.69574L24 24L20.5265 0.758139Z" fill="#FF0022"/>
<path d="M20.9326 0.701016C21.0817 0.681386 21.231 0.663187 21.3805 0.646423L24 24L20.9326 0.701016Z" fill="#FF001E"/>
<path d="M21.3397 0.651077C21.4891 0.634052 21.6387 0.618462 21.7885 0.604309L24 24L21.3397 0.651077Z" fill="#FF001A"/>
<path d="M21.7476 0.608204C21.8973 0.593789 22.0471 0.580813 22.1971 0.569275L24 24L21.7476 0.608204Z" fill="#FF0015"/>
<path d="M22.1562 0.57246C22.3061 0.560661 22.4562 0.550301 22.6063 0.541382L24 24L22.1562 0.57246Z" fill="#FF0011"/>
<path d="M22.5653 0.543848C22.7154 0.534667 22.8656 0.526928 23.0159 0.52063L24 24L22.5653 0.543848Z" fill="#FF000D"/>
<path d="M22.9749 0.52237C23.1252 0.51581 23.2755 0.510693 23.4258 0.507019L24 24L22.9749 0.52237Z" fill="#FF0009"/>
<path d="M23.3848 0.50803C23.5352 0.504093 23.6855 0.501599 23.8359 0.500549L24 24L23.3848 0.50803Z" fill="#FF0004"/>
</g>
<defs>
<clipPath id="clip0_3_2">
<rect width="48" height="48" fill="white"/>
</clipPath>
</defs>
</svg>