
  <svg width="48" height="48" viewBox="0 0 48 48" fill="none" xmlns="http://www.w3.org/2000/svg">
    <g clip-path="url(#clip0_1_2)">
      <path d="M23.8167 3.0008C23.9511 2.99963 24.0855 2.99974 24.2199 3.00115L24 24L23.8167 3.0008Z" fill="#FF0000"/>
      <path d="M24.1833 3.00079C24.3176 3.00197 24.452 3.00443 24.5864 3.00818L24 24L24.1833 3.00079Z" fill="#FF0400"/>
      <path d="M24.5497 3.0072C24.6841 3.01072 24.8184 3.01553 24.9526 3.02162L24 24L24.5497 3.0072Z" fill="#FF0900"/>
      <path d="M24.916 3.02002C25.0503 3.02588 25.1845 3.03303 25.3186 3.04147L24 24L24.916 3.02002Z" fill="#FF0D00"/>
      <path d="M25.282 3.03918C25.4162 3.04739 25.5502 3.05688 25.6842 3.06766L24 24L25.282 3.03918Z" fill="#FF1100"/>
      <path d="M25.6476 3.06476C25.7816 3.0753 25.9155 3.08713 26.0492 3.10025L24 24L25.6476 3.06476Z" fill="#FF1500"/>
      <path d="M26.0128 3.09668C26.1465 3.10956 26.2802 3.12373 26.4137 3.13917L24 24L26.0128 3.09668Z" fill="#FF1A00"/>
      <path d="M26.3773 3.13501C26.5108 3.15022 26.6442 3.16672 26.7774 3.18449L24 24L26.3773 3.13501Z" fill="#FF1E00"/>
      <path d="M26.741 3.17969C26.8743 3.19723 27.0074 3.21605 27.1402 3.23615L24 24L26.741 3.17969Z" fill="#FF2200"/>
      <path d="M27.104 3.23065C27.2369 3.25052 27.3696 3.27166 27.5021 3.29407L24 24L27.104 3.23065Z" fill="#FF2600"/>
      <path d="M27.466 3.28796C27.5985 3.31014 27.7309 3.3336 27.863 3.35832L24 24L27.466 3.28796Z" fill="#FF2B00"/>
      <path d="M27.8269 3.35162C27.9591 3.37611 28.091 3.40187 28.2226 3.4289L24 24L27.8269 3.35162Z" fill="#FF2F00"/>
      <path d="M28.1867 3.42163C28.3184 3.44842 28.4499 3.47648 28.581 3.5058L24 24L28.1867 3.42163Z" fill="#FF3300"/>
      <path d="M28.5452 3.49774C28.6764 3.52683 28.8074 3.55718 28.938 3.58878L24 23.9999L28.5452 3.49774Z" fill="#FF3700"/>
      <path d="M28.9024 3.5802C29.033 3.61157 29.1634 3.6442 29.2935 3.67808L24 24L28.9024 3.5802Z" fill="#FF3C00"/>
      <path d="M29.258 3.66888C29.3881 3.70253 29.5179 3.73743 29.6473 3.77357L24 24L29.258 3.66888Z" fill="#FF4000"/>
      <path d="M29.612 3.76373C29.7415 3.79965 29.8707 3.8368 29.9995 3.8752L24 24L29.612 3.76373Z" fill="#FF4400"/>
      <path d="M29.9643 3.86475C30.0932 3.90292 30.2217 3.94232 30.3498 3.98296L24 24L29.9643 3.86475Z" fill="#FF4800"/>
      <path d="M30.3148 3.97192C30.443 4.01234 30.5708 4.05398 30.6981 4.09684L24 24L30.3148 3.97192Z" fill="#FF4D00"/>
      <path d="M30.6634 4.08521C30.7908 4.12785 30.9179 4.17171 31.0445 4.21679L24 24L30.6634 4.08521Z" fill="#FF5100"/>
      <path d="M31.0099 4.20453C31.1366 4.24939 31.2629 4.29546 31.3887 4.34275L24 24L31.0099 4.20453Z" fill="#FF5500"/>
      <path d="M31.3544 4.3299C31.4802 4.37696 31.6057 4.42523 31.7306 4.4747L24 24L31.3544 4.3299Z" fill="#FF5900"/>
      <path d="M31.6965 4.46124C31.8216 4.5105 31.9461 4.56095 32.0702 4.6126L24 24L31.6965 4.46124Z" fill="#FF5E00"/>
      <path d="M32.0364 4.59851C32.1605 4.64994 32.2842 4.70256 32.4073 4.75636L24 24L32.0364 4.59851Z" fill="#FF6200"/>
      <path d="M32.3737 4.74176C32.497 4.79535 32.6197 4.85012 32.7419 4.90606L24 24L32.3737 4.74176Z" fill="#FF6600"/>
      <path d="M32.7086 4.89081C32.8308 4.94654 32.9526 5.00344 33.0738 5.06151L24 24L32.7086 4.89081Z" fill="#FF6A00"/>
      <path d="M33.0407 5.04572C33.162 5.10357 33.2828 5.16259 33.4029 5.22277L24 24L33.0407 5.04572Z" fill="#FF6F00"/>
      <path d="M33.3701 5.20636C33.4904 5.26633 33.6101 5.32744 33.7292 5.38971L24 24L33.3701 5.20636Z" fill="#FF7300"/>
      <path d="M33.6967 5.3728C33.8159 5.43486 33.9345 5.49806 34.0525 5.56239L24 24L33.6967 5.3728Z" fill="#FF7700"/>
      <path d="M34.0203 5.5448C34.1384 5.60893 34.2559 5.67418 34.3728 5.74057L24 24L34.0203 5.5448Z" fill="#FF7B00"/>
      <path d="M34.3409 5.72253C34.4579 5.78871 34.5742 5.85601 34.6899 5.92442L24 24L34.3409 5.72253Z" fill="#FF8000"/>
      <path d="M34.6583 5.90576C34.7741 5.97397 34.8892 6.04329 35.0037 6.11371L24 24L34.6583 5.90576Z" fill="#FF8400"/>
      <path d="M34.9725 6.09454C35.0871 6.16476 35.201 6.23608 35.3142 6.30849L24 24L34.9725 6.09454Z" fill="#FF8800"/>
      <path d="M35.2833 6.28876C35.3966 6.36097 35.5093 6.43426 35.6212 6.50863L24 24L35.2833 6.28876Z" fill="#FF8C00"/>
      <path d="M35.5907 6.4884C35.7027 6.56258 35.8141 6.63783 35.9247 6.71414L24 24L35.5907 6.4884Z" fill="#FF9100"/>
      <path d="M35.8945 6.69336C36.0053 6.76948 36.1153 6.84666 36.2246 6.92489L24 24L35.8945 6.69336Z" fill="#FF9500"/>
      <path d="M36.1948 6.90356C36.3042 6.98161 36.4128 7.0607 36.5207 7.14082L24 24L36.1948 6.90356Z" fill="#FF9900"/>
      <path d="M36.4913 7.11902C36.5993 7.19896 36.7066 7.27993 36.813 7.36193L24 24L36.4913 7.11902Z" fill="#FF9D00"/>
      <path d="M36.784 7.3396C36.8906 7.42141 36.9964 7.50425 37.1015 7.58809L24 24L36.784 7.3396Z" fill="#FFA200"/>
      <path d="M37.0728 7.56525C37.178 7.64891 37.2823 7.73358 37.3859 7.81924L24 24L37.0728 7.56525Z" fill="#FFA600"/>
      <path d="M37.3576 7.7959C37.4613 7.88138 37.5642 7.96786 37.6663 8.05532L24 24L37.3576 7.7959Z" fill="#FFAA00"/>
      <path d="M37.6384 8.03143C37.7406 8.11871 37.8419 8.20697 37.9424 8.2962L24 24L37.6384 8.03143Z" fill="#FFAE00"/>
      <path d="M37.915 8.27191C38.0157 8.36096 38.1155 8.45098 38.2144 8.54194L24 24L37.915 8.27191Z" fill="#FFB300"/>
      <path d="M38.1874 8.51721C38.2865 8.60801 38.3847 8.69975 38.482 8.79243L24 24L38.1874 8.51721Z" fill="#FFB700"/>
      <path d="M38.4554 8.76709C38.5529 8.8596 38.6495 8.95304 38.7452 9.0474L24 23.9999L38.4554 8.76709Z" fill="#FFBB00"/>
      <path d="M38.4554 8.76709C38.5529 8.8596 38.6495 8.95304 38.7452 9.0474L24 23.9999L38.4554 8.76709Z" fill="#FFBB00"/>
      <path d="M38.7191 9.02173C38.8149 9.11592 38.9099 9.21104 39.0039 9.30706L24 24L38.7191 9.02173Z" fill="#FFBF00"/>
      <path d="M38.9783 9.28088C39.0725 9.37674 39.1657 9.47349 39.2581 9.57114L24 24L38.9783 9.28088Z" fill="#FFC400"/>
      <path d="M39.2329 9.54456C39.3254 9.64204 39.4169 9.74041 39.5076 9.83965L24 24L39.2329 9.54456Z" fill="#FFC800"/>
      <path d="M39.4828 9.81256C39.5736 9.91164 39.6635 10.0116 39.7523 10.1124L24 23.9999L39.4828 9.81256Z" fill="#FFCC00"/>
      <path d="M39.7281 10.085C39.8171 10.1857 39.9052 10.2872 39.9923 10.3895L24 24L39.7281 10.085Z" fill="#FFD000"/>
      <path d="M39.9685 10.3616C40.0558 10.4638 40.1421 10.5668 40.2274 10.6706L24 24L39.9685 10.3616Z" fill="#FFD500"/>
      <path d="M40.2041 10.6424C40.2896 10.7461 40.3741 10.8506 40.4576 10.9559L24 24L40.2041 10.6424Z" fill="#FFD900"/>
      <path d="M40.4348 10.9272C40.5184 11.0324 40.6011 11.1383 40.6827 11.2451L24 24L40.4348 10.9272Z" fill="#FFDD00"/>
      <path d="M40.6604 11.216C40.7422 11.3226 40.823 11.43 40.9028 11.5382L24 24L40.6604 11.216Z" fill="#FFE100"/>
      <path d="M40.881 11.5087C40.9609 11.6168 41.0398 11.7256 41.1177 11.8351L24 24L40.881 11.5087Z" fill="#FFE600"/>
      <path d="M41.0964 11.8052C41.1745 11.9146 41.2515 12.0248 41.3274 12.1357L24 24L41.0964 11.8052Z" fill="#FFEA00"/>
      <path d="M41.3066 12.1055C41.3828 12.2162 41.4578 12.3277 41.5318 12.4399L24 24L41.3066 12.1055Z" fill="#FFEE00"/>
      <path d="M41.5116 12.4093C41.5858 12.5214 41.6589 12.6341 41.7309 12.7476L24 24L41.5116 12.4093Z" fill="#FFF200"/>
      <path d="M41.7112 12.7167C41.7834 12.8301 41.8545 12.9441 41.9246 13.0588L24 24L41.7112 12.7167Z" fill="#FFF700"/>
      <path d="M41.9054 13.0275C41.9757 13.1421 42.0448 13.2574 42.1128 13.3733L24 24L41.9054 13.0275Z" fill="#FFFB00"/>
      <path d="M42.0942 13.3417C42.1624 13.4575 42.2295 13.574 42.2955 13.6911L24 24L42.0942 13.3417Z" fill="#FFFF00"/>
      <path d="M42.2775 13.6591C42.3436 13.7761 42.4087 13.8937 42.4726 14.0119L24 24L42.2775 13.6591Z" fill="#FBFF00"/>
      <path d="M42.4552 13.9796C42.5193 14.0977 42.5823 14.2164 42.6441 14.3358L24 23.9999L42.4552 13.9796Z" fill="#F7FF00"/>
      <path d="M42.6272 14.3033C42.6893 14.4225 42.7502 14.5423 42.8099 14.6627L24 24L42.6272 14.3033Z" fill="#F2FF00"/>
      <path d="M42.7936 14.6298C42.8536 14.7501 42.9124 14.8709 42.97 14.9923L24 24L42.7936 14.6298Z" fill="#EEFF00"/>
      <path d="M42.9543 14.9593C43.0121 15.0806 43.0688 15.2024 43.1243 15.3248L24 24L42.9543 14.9593Z" fill="#EAFF00"/>
      <path d="M43.1092 15.2914C43.1649 15.4137 43.2195 15.5366 43.2728 15.6599L24 24L43.1092 15.2914Z" fill="#E6FF00"/>
      <path d="M43.2583 15.6263C43.3118 15.7495 43.3642 15.8733 43.4155 15.9975L24 24L43.2583 15.6263Z" fill="#E1FF00"/>
      <path d="M43.4015 15.9637C43.4529 16.0878 43.5031 16.2125 43.5522 16.3376L24 24L43.4015 15.9637Z" fill="#DDFF00"/>
      <path d="M43.5388 16.3035C43.588 16.4285 43.6361 16.554 43.6829 16.68L24 24L43.5388 16.3035Z" fill="#D9FF00"/>
      <path d="M43.6701 16.6456C43.7172 16.7715 43.763 16.8978 43.8077 17.0246L24 24L43.6701 16.6456Z" fill="#D5FF00"/>
      <path d="M43.7955 16.9901C43.8403 17.1167 43.884 17.2438 43.9264 17.3714L24 24L43.7955 16.9901Z" fill="#D0FF00"/>
      <path d="M43.9148 17.3366C43.9574 17.4641 43.9989 17.5919 44.039 17.7201L24 24L43.9148 17.3366Z" fill="#CCFF00"/>
      <path d="M44.028 17.6852C44.0685 17.8134 44.1076 17.9419 44.1456 18.0708L24 24L44.028 17.6852Z" fill="#C8FF00"/>
      <path d="M44.1352 18.0356C44.1734 18.1645 44.2103 18.2937 44.246 18.4233L24 24L44.1352 18.0356Z" fill="#C4FF00"/>
      <path d="M44.2362 18.388C44.2721 18.5175 44.3068 18.6473 44.3402 18.7775L24 24L44.2362 18.388Z" fill="#BFFF00"/>
      <path d="M44.3311 18.7421C44.3647 18.8722 44.3971 19.0026 44.4283 19.1333L24 24L44.3311 18.7421Z" fill="#BBFF00"/>
      <path d="M44.4198 19.0977C44.4511 19.2283 44.4813 19.3593 44.5101 19.4906L24 24L44.4198 19.0977Z" fill="#B7FF00"/>
      <path d="M44.5022 19.4548C44.5313 19.586 44.5591 19.7175 44.5857 19.8492L24 24L44.5022 19.4548Z" fill="#B3FF00"/>
      <path d="M44.5784 19.8133C44.6052 19.945 44.6307 20.0769 44.655 20.2091L24 24L44.5784 19.8133Z" fill="#AEFF00"/>
      <path d="M44.6483 20.173C44.6728 20.3052 44.6961 20.4375 44.718 20.5701L24 24L44.6483 20.173Z" fill="#AAFF00"/>
      <path d="M44.712 20.534C44.7342 20.6665 44.7551 20.7993 44.7747 20.9323L24 24L44.712 20.534Z" fill="#A6FF00"/>
      <path d="M44.7693 20.896C44.7892 21.0289 44.8078 21.162 44.8251 21.2953L24 24L44.7693 20.896Z" fill="#A2FF00"/>
      <path d="M44.8203 21.2589C44.8379 21.3922 44.8541 21.5256 44.8691 21.6591L24 24L44.8203 21.2589Z" fill="#9EFF00"/>
      <path d="M44.865 21.6227C44.8802 21.7563 44.8941 21.8899 44.9068 22.0237L24 24L44.865 21.6227Z" fill="#99FF00"/>
      <path d="M44.9033 21.9872C44.9162 22.121 44.9278 22.2549 44.9381 22.3889L24 24L44.9033 21.9872Z" fill="#95FF00"/>
      <path d="M44.9353 22.3524C44.9458 22.4863 44.9551 22.6204 44.963 22.7546L24 24L44.9353 22.3524Z" fill="#91FF00"/>
      <path d="M44.9608 22.718C44.969 22.8522 44.9759 22.9864 44.9816 23.1206L24 24L44.9608 22.718Z" fill="#8CFF00"/>
      <path d="M44.98 23.084C44.9859 23.2183 44.9904 23.3526 44.9937 23.487L24 24.0001L44.98 23.084Z" fill="#88FF00"/>
      <path d="M44.9928 23.4503C44.9963 23.5846 44.9985 23.719 44.9995 23.8534L24 24L44.9928 23.4503Z" fill="#84FF00"/>
      <path d="M44.9992 23.8167C45.0004 23.9511 45.0003 24.0855 44.9989 24.2199L24 24L44.9992 23.8167Z" fill="#80FF00"/>
      <path d="M44.9992 24.1833C44.998 24.3176 44.9956 24.452 44.9918 24.5864L24 24L44.9992 24.1833Z" fill="#7BFF00"/>
      <path d="M44.9928 24.5497C44.9893 24.6841 44.9845 24.8184 44.9784 24.9526L24 24L44.9928 24.5497Z" fill="#77FF00"/>
      <path d="M44.98 24.916C44.9741 25.0503 44.967 25.1845 44.9586 25.3186L24 24L44.98 24.916Z" fill="#73FF00"/>
      <path d="M44.9608 25.282C44.9526 25.4162 44.9431 25.5502 44.9323 25.6842L24 24L44.9608 25.282Z" fill="#6FFF00"/>
      <path d="M44.9353 25.6476C44.9247 25.7816 44.9129 25.9155 44.8998 26.0492L24 24L44.9353 25.6476Z" fill="#6AFF00"/>
      <path d="M44.9033 26.0128C44.8904 26.1465 44.8763 26.2802 44.8608 26.4137L24 24L44.9033 26.0128Z" fill="#66FF00"/>
      <path d="M44.865 26.3773C44.8498 26.5108 44.8333 26.6442 44.8155 26.7774L24 24L44.865 26.3773Z" fill="#62FF00"/>
      <path d="M44.8203 26.741C44.8028 26.8743 44.784 27.0074 44.7639 27.1402L24 24L44.8203 26.741Z" fill="#5EFF00"/>
      <path d="M44.7693 27.104C44.7495 27.2369 44.7283 27.3696 44.7059 27.5021L24 24L44.7693 27.104Z" fill="#59FF00"/>
      <path d="M44.712 27.466C44.6898 27.5985 44.6664 27.7309 44.6416 27.863L24 24L44.712 27.466Z" fill="#55FF00"/>
      <path d="M44.6483 27.8269C44.6239 27.9591 44.5981 28.091 44.5711 28.2226L24 24L44.6483 27.8269Z" fill="#51FF00"/>
      <path d="M44.5784 28.1867C44.5516 28.3184 44.5236 28.4499 44.4942 28.581L24 24L44.5784 28.1867Z" fill="#4DFF00"/>
      <path d="M44.5022 28.5452C44.4731 28.6764 44.4428 28.8074 44.4112 28.938L24 24L44.5022 28.5452Z" fill="#48FF00"/>
      <path d="M44.4198 28.9024C44.3884 29.033 44.3558 29.1634 44.3219 29.2935L24 24L44.4198 28.9024Z" fill="#44FF00"/>
      <path d="M44.3311 29.258C44.2974 29.3881 44.2625 29.5179 44.2264 29.6473L24 24L44.3311 29.258Z" fill="#40FF00"/>
      <path d="M44.2362 29.612C44.2003 29.7415 44.1632 29.8707 44.1248 29.9995L24 24L44.2362 29.612Z" fill="#3CFF00"/>
      <path d="M44.1352 29.9643C44.097 30.0932 44.0576 30.2217 44.017 30.3498L24 24L44.1352 29.9643Z" fill="#37FF00"/>
      <path d="M44.028 30.3148C43.9876 30.443 43.946 30.5708 43.9031 30.6981L24 24L44.028 30.3148Z" fill="#33FF00"/>
      <path d="M43.9148 30.6634C43.8721 30.7908 43.8283 30.9179 43.7832 31.0445L24 24L43.9148 30.6634Z" fill="#2FFF00"/>
      <path d="M43.7955 31.0099C43.7506 31.1366 43.7045 31.2629 43.6572 31.3887L24 24L43.7955 31.0099Z" fill="#2BFF00"/>
      <path d="M43.6701 31.3544C43.623 31.4802 43.5748 31.6057 43.5253 31.7306L24 24L43.6701 31.3544Z" fill="#26FF00"/>
      <path d="M43.5388 31.6965C43.4895 31.8216 43.439 31.9461 43.3874 32.0702L24 24L43.5388 31.6965Z" fill="#22FF00"/>
      <path d="M43.4015 32.0364C43.35 32.1605 43.2974 32.2842 43.2436 32.4073L24 24L43.4015 32.0364Z" fill="#1EFF00"/>
      <path d="M43.2583 32.3737C43.2047 32.497 43.1499 32.6197 43.0939 32.7419L24 24L43.2583 32.3737Z" fill="#1AFF00"/>
      <path d="M43.1092 32.7086C43.0534 32.8308 42.9965 32.9526 42.9385 33.0738L24 24L43.1092 32.7086Z" fill="#15FF00"/>
      <path d="M42.9543 33.0407C42.8964 33.162 42.8374 33.2828 42.7772 33.4029L24 24L42.9543 33.0407Z" fill="#11FF00"/>
      <path d="M42.7936 33.3702C42.7336 33.4904 42.6725 33.6101 42.6103 33.7292L24 24L42.7936 33.3702Z" fill="#0DFF00"/>
      <path d="M42.6272 33.6967C42.5652 33.8159 42.502 33.9345 42.4376 34.0525L24 24L42.6272 33.6967Z" fill="#09FF00"/>
      <path d="M42.4552 34.0203C42.391 34.1384 42.3258 34.2559 42.2594 34.3728L24 24L42.4552 34.0203Z" fill="#04FF00"/>
      <path d="M42.2775 34.3409C42.2113 34.4579 42.144 34.5742 42.0756 34.6899L24 24L42.2775 34.3409Z" fill="#00FF00"/>
      <path d="M42.0942 34.6583C42.026 34.7741 41.9567 34.8892 41.8863 35.0037L24 24L42.0942 34.6583Z" fill="#00FF04"/>
      <path d="M41.9054 34.9725C41.8352 35.0871 41.7639 35.201 41.6915 35.3142L24 24L41.9054 34.9725Z" fill="#00FF09"/>
      <path d="M41.7112 35.2833C41.639 35.3966 41.5657 35.5093 41.4913 35.6212L24 24L41.7112 35.2833Z" fill="#00FF0D"/>
      <path d="M41.5116 35.5907C41.4374 35.7027 41.3622 35.8141 41.2859 35.9247L24 24L41.5116 35.5907Z" fill="#00FF11"/>
      <path d="M41.3066 35.8945C41.2305 36.0053 41.1533 36.1153 41.0751 36.2246L24 24L41.3066 35.8945Z" fill="#00FF15"/>
      <path d="M41.0964 36.1948C41.0184 36.3042 40.9393 36.4128 40.8592 36.5207L24 24L41.0964 36.1948Z" fill="#00FF1A"/>
      <path d="M40.881 36.4913C40.801 36.5993 40.7201 36.7066 40.6381 36.813L24 24L40.881 36.4913Z" fill="#00FF1E"/>
      <path d="M40.6604 36.784C40.5786 36.8906 40.4958 36.9964 40.4119 37.1015L24 24L40.6604 36.784Z" fill="#00FF22"/>
      <path d="M40.4348 37.0728C40.3511 37.178 40.2664 37.2823 40.1808 37.3859L24 24L40.4348 37.0728Z" fill="#00FF26"/>
      <path d="M40.2041 37.3576C40.1186 37.4613 40.0321 37.5642 39.9447 37.6663L24 24L40.2041 37.3576Z" fill="#00FF2B"/>
      <path d="M39.9685 37.6384C39.8812 37.7406 39.793 37.8419 39.7038 37.9424L24 24L39.9685 37.6384Z" fill="#00FF2F"/>
      <path d="M39.7281 37.915C39.639 38.0157 39.549 38.1155 39.458 38.2144L24 24L39.7281 37.915Z" fill="#00FF33"/>
      <path d="M39.4828 38.1874C39.392 38.2865 39.3003 38.3847 39.2076 38.482L24 24L39.4828 38.1874Z" fill="#00FF37"/>
      <path d="M39.2329 38.4554C39.1403 38.5529 39.0469 38.6495 38.9525 38.7452L24 24L39.2329 38.4554Z" fill="#00FF3C"/>
      <path d="M38.9783 38.7191C38.8841 38.8149 38.7889 38.9099 38.6929 39.0039L24 24L38.9783 38.7191Z" fill="#00FF40"/>
      <path d="M38.7191 38.9783C38.6232 39.0725 38.5265 39.1657 38.4288 39.2581L24 24L38.7191 38.9783Z" fill="#00FF44"/>
      <path d="M38.4554 39.2329C38.358 39.3254 38.2596 39.4169 38.1603 39.5076L24 24L38.4554 39.2329Z" fill="#00FF48"/>
      <path d="M38.1874 39.4828C38.0883 39.5736 37.9884 39.6635 37.8875 39.7523L24 24L38.1874 39.4828Z" fill="#00FF4D"/>
      <path d="M37.915 39.7281C37.8144 39.8171 37.7129 39.9052 37.6105 39.9923L24 24L37.915 39.7281Z" fill="#00FF51"/>
      <path d="M37.6384 39.9685C37.5362 40.0558 37.4332 40.1421 37.3293 40.2274L24 24L37.6384 39.9685Z" fill="#00FF55"/>
      <path d="M37.3576 40.2041C37.2539 40.2896 37.1494 40.3741 37.0441 40.4576L24 24L37.3576 40.2041Z" fill="#00FF59"/>
      <path d="M37.0728 40.4348C36.9676 40.5184 36.8617 40.6011 36.7549 40.6827L24 24L37.0728 40.4348Z" fill="#00FF5E"/>
      <path d="M36.784 40.6604C36.6774 40.7422 36.57 40.823 36.4618 40.9028L24 24L36.784 40.6604Z" fill="#00FF62"/>
      <path d="M36.4913 40.881C36.3832 40.9609 36.2744 41.0398 36.1649 41.1177L24 24L36.4913 40.881Z" fill="#00FF66"/>
      <path d="M36.1948 41.0964C36.0853 41.1745 35.9752 41.2515 35.8643 41.3274L24 24L36.1948 41.0964Z" fill="#00FF6A"/>
      <path d="M35.8945 41.3066C35.7838 41.3828 35.6723 41.4578 35.5601 41.5318L24 24L35.8945 41.3066Z" fill="#00FF6F"/>
      <path d="M35.5907 41.5116C35.4786 41.5858 35.3658 41.6589 35.2524 41.7309L24 24L35.5907 41.5116Z" fill="#00FF73"/>
      <path d="M35.2833 41.7112C35.1699 41.7834 35.0559 41.8545 34.9412 41.9246L24 24L35.2833 41.7112Z" fill="#00FF77"/>
      <path d="M34.9725 41.9054C34.8579 41.9757 34.7426 42.0448 34.6267 42.1128L24 24L34.9725 41.9054Z" fill="#00FF7B"/>
      <path d="M34.6583 42.0942C34.5425 42.1624 34.4261 42.2295 34.309 42.2955L24 24L34.6583 42.0942Z" fill="#00FF80"/>
      <path d="M34.3409 42.2775C34.2239 42.3436 34.1063 42.4087 33.9881 42.4726L24 24L34.3409 42.2775Z" fill="#00FF84"/>
      <path d="M34.0203 42.4552C33.9022 42.5193 33.7835 42.5823 33.6642 42.6441L24 24L34.0203 42.4552Z" fill="#00FF88"/>
      <path d="M33.6967 42.6272C33.5775 42.6893 33.4577 42.7502 33.3373 42.8099L24 24L33.6967 42.6272Z" fill="#00FF8C"/>
      <path d="M33.3701 42.7936C33.2499 42.8536 33.129 42.9124 33.0076 42.97L24 24L33.3701 42.7936Z" fill="#00FF91"/>
      <path d="M33.0407 42.9543C32.9194 43.0121 32.7976 43.0688 32.6752 43.1244L24 24L33.0407 42.9543Z" fill="#00FF95"/>
      <path d="M32.7086 43.1092C32.5863 43.1649 32.4634 43.2195 32.3401 43.2728L24 24L32.7086 43.1092Z" fill="#00FF99"/>
      <path d="M32.3737 43.2583C32.2505 43.3118 32.1267 43.3642 32.0025 43.4155L24 24L32.3737 43.2583Z" fill="#00FF9D"/>
      <path d="M32.0364 43.4015C31.9122 43.4529 31.7875 43.5031 31.6624 43.5522L24 24L32.0364 43.4015Z" fill="#00FFA2"/>
      <path d="M31.6965 43.5388C31.5715 43.588 31.446 43.6361 31.32 43.6829L24 24L31.6965 43.5388Z" fill="#00FFA6"/>
      <path d="M31.3544 43.6701C31.2285 43.7172 31.1021 43.763 30.9754 43.8077L24 24L31.3544 43.6701Z" fill="#00FFAA"/>
      <path d="M31.0099 43.7955C30.8833 43.8403 30.7561 43.884 30.6286 43.9264L24 24L31.0099 43.7955Z" fill="#00FFAE"/>
      <path d="M30.6634 43.9148C30.5359 43.9574 30.4081 43.9989 30.2799 44.039L24 24L30.6634 43.9148Z" fill="#00FFB3"/>
      <path d="M30.3148 44.028C30.1866 44.0685 30.0581 44.1076 29.9292 44.1456L24 24L30.3148 44.028Z" fill="#00FFB7"/>
      <path d="M29.9643 44.1352C29.8355 44.1734 29.7062 44.2103 29.5767 44.246L24 24L29.9643 44.1352Z" fill="#00FFBB"/>
      <path d="M29.612 44.2362C29.4825 44.2721 29.3527 44.3068 29.2225 44.3402L24 24L29.612 44.2362Z" fill="#00FFBF"/>
      <path d="M29.258 44.3311C29.1279 44.3647 28.9974 44.3971 28.8667 44.4283L24 24L29.258 44.3311Z" fill="#00FFC4"/>
      <path d="M28.9024 44.4198C28.7717 44.4511 28.6407 44.4813 28.5094 44.5101L24 24L28.9024 44.4198Z" fill="#00FFC8"/>
      <path d="M28.5452 44.5022C28.414 44.5313 28.2825 44.5591 28.1508 44.5857L24 24L28.5452 44.5022Z" fill="#00FFCC"/>
      <path d="M28.1867 44.5784C28.055 44.6052 27.9231 44.6307 27.7909 44.655L24 24L28.1867 44.5784Z" fill="#00FFD0"/>
      <path d="M27.8269 44.6483C27.6948 44.6728 27.5624 44.6961 27.4298 44.718L24 24L27.8269 44.6483Z" fill="#00FFD5"/>
      <path d="M27.466 44.712C27.3335 44.7342 27.2007 44.7551 27.0677 44.7747L24 24L27.466 44.712Z" fill="#00FFD9"/>
      <path d="M27.104 44.7693C26.9711 44.7892 26.838 44.8078 26.7047 44.8251L24 24L27.104 44.7693Z" fill="#00FFDD"/>
      <path d="M26.741 44.8203C26.6078 44.8379 26.4744 44.8541 26.3408 44.8691L24 24L26.741 44.8203Z" fill="#00FFE1"/>
      <path d="M26.3773 44.865C26.2437 44.8802 26.1101 44.8941 25.9763 44.9068L24 24L26.3773 44.865Z" fill="#00FFE6"/>
      <path d="M26.0128 44.9033C25.879 44.9162 25.7451 44.9278 25.6111 44.9381L24 24L26.0128 44.9033Z" fill="#00FFEA"/>
      <path d="M25.6476 44.9353C25.5137 44.9458 25.3796 44.9551 25.2454 44.963L24 24L25.6476 44.9353Z" fill="#00FFEE"/>
      <path d="M25.282 44.9608C25.1479 44.969 25.0137 44.9759 24.8794 44.9816L24 24L25.282 44.9608Z" fill="#00FFF2"/>
      <path d="M24.916 44.98C24.7817 44.9859 24.6474 44.9904 24.5131 44.9937L24 24L24.916 44.98Z" fill="#00FFF7"/>
      <path d="M24.5497 44.9928C24.4154 44.9963 24.281 44.9985 24.1466 44.9995L24 24L24.5497 44.9928Z" fill="#00FFFB"/>
      <path d="M24.1833 44.9992C24.0489 45.0003 23.9145 45.0002 23.7801 44.9988L24 24L24.1833 44.9992Z" fill="#00FFFF"/>
      <path d="M23.8167 44.9992C23.6823 44.998 23.548 44.9956 23.4136 44.9918L24 24L23.8167 44.9992Z" fill="#00FBFF"/>
      <path d="M23.4503 44.9928C23.3159 44.9893 23.1816 44.9845 23.0474 44.9784L24 24L23.4503 44.9928Z" fill="#00F7FF"/>
      <path d="M23.084 44.98C22.9497 44.9741 22.8155 44.967 22.6814 44.9586L24 24L23.084 44.98Z" fill="#00F2FF"/>
      <path d="M22.718 44.9608C22.5838 44.9526 22.4498 44.9431 22.3158 44.9324L24 24L22.718 44.9608Z" fill="#00EEFF"/>
      <path d="M22.3523 44.9353C22.2184 44.9247 22.0845 44.9129 21.9507 44.8998L24 24L22.3523 44.9353Z" fill="#00EAFF"/>
      <path d="M21.9872 44.9033C21.8535 44.8904 21.7198 44.8763 21.5863 44.8608L24 24L21.9872 44.9033Z" fill="#00E6FF"/>
      <path d="M21.6227 44.865C21.4892 44.8498 21.3558 44.8333 21.2226 44.8155L24 24L21.6227 44.865Z" fill="#00E1FF"/>
      <path d="M21.2589 44.8203C21.1257 44.8028 20.9926 44.784 20.8597 44.7639L24 24L21.2589 44.8203Z" fill="#00DDFF"/>
      <path d="M20.896 44.7693C20.7631 44.7495 20.6304 44.7283 20.4979 44.7059L24 24L20.896 44.7693Z" fill="#00D9FF"/>
      <path d="M20.534 44.712C20.4015 44.6898 20.2691 44.6664 20.137 44.6416L24 24L20.534 44.712Z" fill="#00D5FF"/>
      <path d="M20.173 44.6483C20.0409 44.6239 19.909 44.5981 19.7773 44.5711L24 24L20.173 44.6483Z" fill="#00D0FF"/>
      <path d="M19.8133 44.5784C19.6816 44.5516 19.5501 44.5236 19.419 44.4942L24 24L19.8133 44.5784Z" fill="#00CCFF"/>
      <path d="M19.4548 44.5022C19.3236 44.4731 19.1926 44.4428 19.062 44.4112L24 24L19.4548 44.5022Z" fill="#00C8FF"/>
      <path d="M19.0976 44.4198C18.967 44.3884 18.8366 44.3558 18.7065 44.3219L24 24L19.0976 44.4198Z" fill="#00C4FF"/>
      <path d="M18.742 44.3311C18.6119 44.2974 18.4821 44.2625 18.3527 44.2264L24 24L18.742 44.3311Z" fill="#00BFFF"/>
      <path d="M18.388 44.2362C18.2585 44.2003 18.1293 44.1632 18.0005 44.1248L24 24L18.388 44.2362Z" fill="#00BBFF"/>
      <path d="M18.0357 44.1352C17.9068 44.097 17.7783 44.0576 17.6502 44.017L24 24L18.0357 44.1352Z" fill="#00B7FF"/>
      <path d="M17.6852 44.028C17.557 43.9876 17.4292 43.946 17.3018 43.9031L24 24L17.6852 44.028Z" fill="#00B3FF"/>
      <path d="M17.3366 43.9148C17.2091 43.8721 17.0821 43.8283 16.9555 43.7832L24 24L17.3366 43.9148Z" fill="#00AEFF"/>
      <path d="M16.9901 43.7955C16.8634 43.7506 16.7371 43.7045 16.6113 43.6572L24 24L16.9901 43.7955Z" fill="#00AAFF"/>
      <path d="M16.6456 43.6701C16.5198 43.623 16.3943 43.5748 16.2694 43.5253L24 24L16.6456 43.6701Z" fill="#00A6FF"/>
      <path d="M16.3035 43.5388C16.1784 43.4895 16.0539 43.4391 15.9298 43.3874L24 24L16.3035 43.5388Z" fill="#00A2FF"/>
      <path d="M15.9637 43.4015C15.8395 43.35 15.7158 43.2974 15.5927 43.2436L24 24L15.9637 43.4015Z" fill="#009DFF"/>
      <path d="M15.6263 43.2583C15.503 43.2047 15.3803 43.1499 15.2581 43.0939L24 24L15.6263 43.2583Z" fill="#0099FF"/>
      <path d="M15.2915 43.1092C15.1692 43.0534 15.0474 42.9965 14.9262 42.9385L24 24L15.2915 43.1092Z" fill="#0095FF"/>
      <path d="M14.9593 42.9543C14.838 42.8964 14.7172 42.8374 14.597 42.7772L24 24L14.9593 42.9543Z" fill="#0091FF"/>
      <path d="M14.6298 42.7936C14.5095 42.7336 14.3898 42.6725 14.2708 42.6103L24 24L14.6298 42.7936Z" fill="#008CFF"/>
      <path d="M14.3033 42.6272C14.184 42.5652 14.0654 42.502 13.9474 42.4376L24 24L14.3033 42.6272Z" fill="#0088FF"/>
      <path d="M13.9797 42.4552C13.8616 42.391 13.7441 42.3258 13.6272 42.2594L24 24L13.9797 42.4552Z" fill="#0084FF"/>
      <path d="M13.6591 42.2775C13.5421 42.2113 13.4258 42.144 13.3101 42.0756L24 24L13.6591 42.2775Z" fill="#0080FF"/>
      <path d="M13.3417 42.0942C13.2259 42.026 13.1107 41.9567 12.9963 41.8863L24 24L13.3417 42.0942Z" fill="#007BFF"/>
      <path d="M13.0275 41.9054C12.913 41.8352 12.799 41.7639 12.6858 41.6915L24 24L13.0275 41.9054Z" fill="#0077FF"/>
      <path d="M12.7167 41.7112C12.6034 41.639 12.4907 41.5657 12.3788 41.4913L24 24L12.7167 41.7112Z" fill="#0072FF"/>
      <path d="M12.4093 41.5116C12.2973 41.4374 12.1859 41.3622 12.0753 41.2859L24 24L12.4093 41.5116Z" fill="#006FFF"/>
      <path d="M12.1055 41.3066C11.9947 41.2305 11.8847 41.1533 11.7754 41.0751L24 24L12.1055 41.3066Z" fill="#006AFF"/>
      <path d="M11.8052 41.0964C11.6958 41.0184 11.5872 40.9393 11.4793 40.8592L24 24L11.8052 41.0964Z" fill="#0066FF"/>
      <path d="M11.5087 40.881C11.4007 40.8011 11.2934 40.7201 11.187 40.6381L24 24L11.5087 40.881Z" fill="#0062FF"/>
      <path d="M11.216 40.6604C11.1094 40.5786 11.0035 40.4958 10.8985 40.4119L24 24L11.216 40.6604Z" fill="#005EFF"/>
      <path d="M10.9272 40.4348C10.822 40.3511 10.7177 40.2664 10.6141 40.1808L24 24L10.9272 40.4348Z" fill="#0059FF"/>
      <path d="M10.6423 40.2041C10.5386 40.1186 10.4357 40.0321 10.3337 39.9447L24 24L10.6423 40.2041Z" fill="#0055FF"/>
      <path d="M10.3616 39.9685C10.2594 39.8812 10.1581 39.793 10.0576 39.7038L24 24L10.3616 39.9685Z" fill="#0051FF"/>
      <path d="M10.085 39.7281C9.98433 39.639 9.88454 39.549 9.78561 39.458L24 24L10.085 39.7281Z" fill="#004DFF"/>
      <path d="M9.81262 39.4828C9.71354 39.392 9.61533 39.3003 9.51801 39.2076L24 24L9.81262 39.4828Z" fill="#0048FF"/>
      <path d="M9.54453 39.2329C9.44704 39.1403 9.35045 39.0469 9.25476 38.9525L24 24L9.54453 39.2329Z" fill="#0044FF"/>
      <path d="M9.28093 38.9783C9.18507 38.8841 9.09012 38.7889 8.99609 38.6929L24 24L9.28093 38.9783Z" fill="#0040FF"/>
      <path d="M9.02175 38.7191C8.92756 38.6232 8.83428 38.5265 8.74194 38.4288L24 24L9.02175 38.7191Z" fill="#003CFF"/>
      <path d="M8.76713 38.4554C8.67462 38.358 8.58305 38.2596 8.49243 38.1603L24 24L8.76713 38.4554Z" fill="#0037FF"/>
      <path d="M8.51716 38.1874C8.42637 38.0883 8.33652 37.9884 8.24765 37.8875L24 24L8.51716 38.1874Z" fill="#0033FF"/>
      <path d="M8.27192 37.915C8.18287 37.8144 8.09479 37.7129 8.00769 37.6105L24 24L8.27192 37.915Z" fill="#002FFF"/>
      <path d="M8.03146 37.6384C7.94418 37.5362 7.85789 37.4332 7.77258 37.3293L24 24L8.03146 37.6384Z" fill="#002BFF"/>
      <path d="M7.79587 37.3576C7.71038 37.2539 7.6259 37.1494 7.54242 37.0441L24 24L7.79587 37.3576Z" fill="#0026FF"/>
      <path d="M7.56523 37.0728C7.48157 36.9676 7.39892 36.8617 7.31729 36.7549L24 24L7.56523 37.0728Z" fill="#0022FF"/>
      <path d="M7.33958 36.784C7.25777 36.6774 7.17698 36.57 7.09723 36.4618L24 24L7.33958 36.784Z" fill="#001EFF"/>
      <path d="M7.11898 36.4913C7.03904 36.3832 6.96014 36.2744 6.88229 36.1649L24 24L7.11898 36.4913Z" fill="#001AFF"/>
      <path d="M6.90356 36.1948C6.82552 36.0853 6.74853 35.9752 6.67261 35.8643L24 24L6.90356 36.1948Z" fill="#0015FF"/>
      <path d="M6.69336 35.8945C6.61724 35.7838 6.54218 35.6723 6.4682 35.5601L24 24L6.69336 35.8945Z" fill="#0011FF"/>
      <path d="M6.48839 35.5907C6.41421 35.4786 6.34111 35.3658 6.2691 35.2524L24 24L6.48839 35.5907Z" fill="#000DFF"/>
      <path d="M6.28879 35.2833C6.21658 35.1699 6.14546 35.0559 6.07544 34.9412L24 24L6.28879 35.2833Z" fill="#0009FF"/>
      <path d="M6.09455 34.9725C6.02433 34.8579 5.95521 34.7426 5.88721 34.6267L24 24L6.09455 34.9725Z" fill="#0004FF"/>
      <path d="M5.90578 34.6583C5.83757 34.5425 5.77047 34.4261 5.7045 34.309L24 24L5.90578 34.6583Z" fill="#0000FF"/>
      <path d="M5.72252 34.3409C5.65635 34.2239 5.59129 34.1063 5.52737 33.9881L24 24L5.72252 34.3409Z" fill="#0400FF"/>
      <path d="M5.54483 34.0203C5.4807 33.9022 5.41771 33.7835 5.35587 33.6642L24 24L5.54483 34.0203Z" fill="#0900FF"/>
      <path d="M5.37278 33.6967C5.31073 33.5775 5.24982 33.4577 5.19006 33.3373L24 24L5.37278 33.6967Z" fill="#0D00FF"/>
      <path d="M5.20636 33.3702C5.14639 33.2499 5.08758 33.129 5.02994 33.0076L24 24L5.20636 33.3702Z" fill="#1100FF"/>
      <path d="M5.04571 33.0407C4.98785 32.9194 4.93116 32.7976 4.87564 32.6752L24 24L5.04571 33.0407Z" fill="#1500FF"/>
      <path d="M4.8908 32.7086C4.83507 32.5863 4.78052 32.4634 4.72714 32.3401L24 24L4.8908 32.7086Z" fill="#1A00FF"/>
      <path d="M4.74174 32.3737C4.68815 32.2505 4.63575 32.1267 4.58453 32.0025L24 24L4.74174 32.3737Z" fill="#1E00FF"/>
      <path d="M4.59852 32.0364C4.54709 31.9122 4.49685 31.7875 4.44781 31.6624L24 24L4.59852 32.0364Z" fill="#2200FF"/>
      <path d="M4.46123 31.6965C4.41198 31.5715 4.36392 31.446 4.31708 31.32L24 24L4.46123 31.6965Z" fill="#2600FF"/>
      <path d="M4.32988 31.3544C4.28282 31.2285 4.23696 31.1021 4.19232 30.9754L24 24L4.32988 31.3544Z" fill="#2B00FF"/>
      <path d="M4.20453 31.0099C4.15967 30.8833 4.11603 30.7561 4.07361 30.6286L24 24L4.20453 31.0099Z" fill="#2F00FF"/>
      <path d="M4.08519 30.6634C4.04254 30.5359 4.00113 30.4081 3.96094 30.2799L24 24L4.08519 30.6634Z" fill="#3300FF"/>
      <path d="M3.97194 30.3148C3.93153 30.1866 3.89235 30.0581 3.8544 29.9292L24 24L3.97194 30.3148Z" fill="#3700FF"/>
      <path d="M3.86479 29.9643C3.82662 29.8355 3.78969 29.7062 3.754 29.5767L24 24L3.86479 29.9643Z" fill="#3C00FF"/>
      <path d="M3.76374 29.612C3.72782 29.4825 3.69315 29.3527 3.65973 29.2225L24 24L3.76374 29.612Z" fill="#4000FF"/>
      <path d="M3.66891 29.258C3.63526 29.1279 3.60286 28.9974 3.57172 28.8667L24 24L3.66891 29.258Z" fill="#4400FF"/>
      <path d="M3.58022 28.9024C3.54884 28.7717 3.51873 28.6407 3.48987 28.5094L24 24L3.58022 28.9024Z" fill="#4800FF"/>
      <path d="M3.49779 28.5452C3.4687 28.414 3.44087 28.2825 3.41431 28.1508L24 24L3.49779 28.5452Z" fill="#4D00FF"/>
      <path d="M3.42158 28.1867C3.39479 28.055 3.36926 27.9231 3.345 27.7909L24 24L3.42158 28.1867Z" fill="#5100FF"/>
      <path d="M3.35164 27.8269C3.32715 27.6948 3.30393 27.5624 3.28198 27.4298L24 24L3.35164 27.8269Z" fill="#5500FF"/>
      <path d="M3.288 27.466C3.26582 27.3335 3.24491 27.2007 3.22528 27.0677L24 24L3.288 27.466Z" fill="#5900FF"/>
      <path d="M3.23069 27.104C3.21082 26.9711 3.19224 26.838 3.17493 26.7047L24 24L3.23069 27.104Z" fill="#5E00FF"/>
      <path d="M3.17964 26.741C3.1621 26.6078 3.14584 26.4744 3.13086 26.3408L24 24L3.17964 26.741Z" fill="#6200FF"/>
      <path d="M3.13496 26.3773C3.11975 26.2437 3.10582 26.1101 3.09317 25.9763L24 24L3.13496 26.3773Z" fill="#6600FF"/>
      <path d="M3.09671 26.0128C3.08383 25.879 3.07223 25.7451 3.06192 25.6111L24 24L3.09671 26.0128Z" fill="#6A00FF"/>
      <path d="M3.06473 25.6476C3.05418 25.5137 3.04493 25.3796 3.03696 25.2454L24 24L3.06473 25.6476Z" fill="#6F00FF"/>
      <path d="M3.03915 25.282C3.03095 25.1479 3.02403 25.0137 3.0184 24.8794L24 24L3.03915 25.282Z" fill="#7300FF"/>
      <path d="M3.02001 24.916C3.01414 24.7817 3.00957 24.6474 3.00629 24.5131L24 24L3.02001 24.916Z" fill="#7700FF"/>
      <path d="M3.0072 24.5497C3.00369 24.4154 3.00146 24.281 3.00052 24.1466L24 24L3.0072 24.5497Z" fill="#7B00FF"/>
      <path d="M3.0008 24.1833C2.99963 24.0489 2.99974 23.9145 3.00115 23.7801L24 24L3.0008 24.1833Z" fill="#8000FF"/>
      <path d="M3.00079 23.8167C3.00197 23.6823 3.00443 23.548 3.00818 23.4136L24 24L3.00079 23.8167Z" fill="#8400FF"/>
      <path d="M3.0072 23.4503C3.01072 23.3159 3.01553 23.1816 3.02162 23.0474L24 24L3.0072 23.4503Z" fill="#8800FF"/>
      <path d="M3.01999 23.084C3.02585 22.9497 3.033 22.8155 3.04144 22.6814L24 24L3.01999 23.084Z" fill="#8C00FF"/>
      <path d="M3.03915 22.718C3.04736 22.5838 3.05685 22.4498 3.06763 22.3158L24 24L3.03915 22.718Z" fill="#9100FF"/>
      <path d="M3.06473 22.3523C3.07527 22.2184 3.0871 22.0845 3.10022 21.9507L24 24L3.06473 22.3523Z" fill="#9500FF"/>
      <path d="M3.09668 21.9872C3.10956 21.8535 3.12373 21.7198 3.13917 21.5863L24 24L3.09668 21.9872Z" fill="#9900FF"/>
      <path d="M3.13498 21.6227C3.15019 21.4892 3.16669 21.3558 3.18446 21.2226L24 24L3.13498 21.6227Z" fill="#9D00FF"/>
      <path d="M3.17966 21.2589C3.1972 21.1257 3.21602 20.9926 3.23612 20.8597L24 24L3.17966 21.2589Z" fill="#A200FF"/>
      <path d="M3.23065 20.896C3.25052 20.7631 3.27166 20.6304 3.29407 20.4979L24 24L3.23065 20.896Z" fill="#A600FF"/>
      <path d="M3.28799 20.534C3.31018 20.4015 3.33363 20.2691 3.35835 20.137L24 24L3.28799 20.534Z" fill="#AA00FF"/>
      <path d="M3.35162 20.173C3.37611 20.0409 3.40187 19.909 3.4289 19.7773L24 24L3.35162 20.173Z" fill="#AE00FF"/>
      <path d="M3.42157 19.8133C3.44836 19.6816 3.47642 19.5502 3.50574 19.419L24 24L3.42157 19.8133Z" fill="#B300FF"/>
      <path d="M3.49777 19.4548C3.52686 19.3236 3.55721 19.1926 3.58881 19.062L24 24L3.49777 19.4548Z" fill="#B700FF"/>
      <path d="M3.58023 19.0976C3.6116 18.967 3.64423 18.8366 3.67811 18.7065L24 24L3.58023 19.0976Z" fill="#BB00FF"/>
      <path d="M3.66891 18.742C3.70256 18.6119 3.73746 18.4821 3.7736 18.3527L24 24L3.66891 18.742Z" fill="#BF00FF"/>
      <path d="M3.76376 18.388C3.79968 18.2585 3.83683 18.1293 3.87523 18.0005L24 24L3.76376 18.388Z" fill="#C400FF"/>
      <path d="M3.86478 18.0357C3.90295 17.9069 3.94235 17.7784 3.98299 17.6503L24 24L3.86478 18.0357Z" fill="#C800FF"/>
      <path d="M3.97195 17.6852C4.01237 17.557 4.05401 17.4293 4.09687 17.3019L24 24L3.97195 17.6852Z" fill="#CC00FF"/>
      <path d="M4.08521 17.3366C4.12785 17.2091 4.17171 17.0821 4.2168 16.9555L24 24L4.08521 17.3366Z" fill="#D000FF"/>
      <path d="M4.20453 16.99C4.24939 16.8633 4.29547 16.7371 4.34275 16.6113L24 23.9999L4.20453 16.99Z" fill="#D500FF"/>
      <path d="M4.32986 16.6456C4.37693 16.5197 4.4252 16.3943 4.47467 16.2693L24 24L4.32986 16.6456Z" fill="#D900FF"/>
      <path d="M4.46124 16.3035C4.5105 16.1784 4.56095 16.0539 4.6126 15.9298L24 24L4.46124 16.3035Z" fill="#DD00FF"/>
      <path d="M4.59854 15.9636C4.64997 15.8395 4.70259 15.7158 4.75639 15.5927L24 24L4.59854 15.9636Z" fill="#E100FF"/>
      <path d="M4.74176 15.6263C4.79535 15.503 4.85012 15.3803 4.90606 15.2581L24 24L4.74176 15.6263Z" fill="#E600FF"/>
      <path d="M4.89081 15.2914C4.94654 15.1691 5.00344 15.0473 5.06151 14.9261L24 23.9999L4.89081 15.2914Z" fill="#EA00FF"/>
      <path d="M5.04572 14.9593C5.10357 14.838 5.16259 14.7172 5.22277 14.597L24 24L5.04572 14.9593Z" fill="#EE00FF"/>
      <path d="M5.20639 14.6299C5.26636 14.5096 5.32747 14.3899 5.38974 14.2708L24 24L5.20639 14.6299Z" fill="#F200FF"/>
      <path d="M5.37277 14.3033C5.43483 14.1841 5.49802 14.0654 5.56236 13.9474L24 24L5.37277 14.3033Z" fill="#F700FF"/>
      <path d="M5.54486 13.9797C5.60899 13.8616 5.67424 13.7441 5.74063 13.6273L24 24L5.54486 13.9797Z" fill="#FB00FF"/>
      <path d="M5.72253 13.6591C5.78871 13.5421 5.85601 13.4258 5.92442 13.3101L24 24L5.72253 13.6591Z" fill="#FF00FF"/>
      <path d="M5.90579 13.3417C5.974 13.2259 6.04332 13.1107 6.11374 12.9963L24 24L5.90579 13.3417Z" fill="#FF00FB"/>
      <path d="M6.09454 13.0275C6.16476 12.9129 6.23608 12.799 6.30849 12.6858L24 24L6.09454 13.0275Z" fill="#FF00F7"/>
      <path d="M6.28879 12.7167C6.361 12.6034 6.43429 12.4907 6.50866 12.3788L24 24L6.28879 12.7167Z" fill="#FF00F2"/>
      <path d="M6.4884 12.4093C6.56258 12.2972 6.63783 12.1859 6.71414 12.0753L24 24L6.4884 12.4093Z" fill="#FF00EE"/>
      <path d="M6.69333 12.1055C6.76945 11.9947 6.84663 11.8847 6.92486 11.7755L24 24L6.69333 12.1055Z" fill="#FF00EA"/>
      <path d="M6.90356 11.8052C6.98161 11.6958 7.0607 11.5871 7.14082 11.4792L24 24L6.90356 11.8052Z" fill="#FF00E6"/>
      <path d="M7.11902 11.5087C7.19896 11.4007 7.27993 11.2934 7.36193 11.187L24 24L7.11902 11.5087Z" fill="#FF00E1"/>
      <path d="M7.33957 11.216C7.42138 11.1094 7.50422 11.0035 7.58806 10.8985L24 24L7.33957 11.216Z" fill="#FF00DD"/>
      <path d="M7.56522 10.9272C7.64888 10.822 7.73354 10.7176 7.81921 10.6141L24 24L7.56522 10.9272Z" fill="#FF00D9"/>
      <path d="M7.79587 10.6424C7.88135 10.5387 7.96783 10.4358 8.05529 10.3337L24 24L7.79587 10.6424Z" fill="#FF00D5"/>
      <path d="M8.03146 10.3616C8.11874 10.2594 8.207 10.1581 8.29623 10.0576L24 24L8.03146 10.3616Z" fill="#FF00D0"/>
      <path d="M8.27191 10.085C8.36096 9.9843 8.45098 9.88451 8.54194 9.78558L24 24L8.27191 10.085Z" fill="#FF00CC"/>
      <path d="M8.51718 9.81262C8.60797 9.71354 8.69972 9.61533 8.7924 9.51801L24 24L8.51718 9.81262Z" fill="#FF00C8"/>
      <path d="M8.76715 9.54453C8.85966 9.44704 8.9531 9.35045 9.04747 9.25476L24 24L8.76715 9.54453Z" fill="#FF00C4"/>
      <path d="M9.02173 9.28092C9.11592 9.18507 9.21104 9.09012 9.30706 8.99609L24 24L9.02173 9.28092Z" fill="#FF00BF"/>
      <path d="M9.28091 9.02175C9.37677 8.92756 9.47353 8.83428 9.57117 8.74194L24 24L9.28091 9.02175Z" fill="#FF00BB"/>
      <path d="M9.54456 8.76713C9.64204 8.67462 9.74041 8.58305 9.83965 8.49243L24 24L9.54456 8.76713Z" fill="#FF00B7"/>
      <path d="M9.81259 8.51719C9.91168 8.4264 10.0116 8.33656 10.1124 8.24768L24 24L9.81259 8.51719Z" fill="#FF00B3"/>
      <path d="M10.085 8.27199C10.1856 8.18294 10.2872 8.09485 10.3895 8.00775L24 24L10.085 8.27199Z" fill="#FF00AE"/>
      <path d="M10.3616 8.03146C10.4638 7.94418 10.5668 7.85789 10.6707 7.77258L24 24L10.3616 8.03146Z" fill="#FF00AA"/>
      <path d="M10.6424 7.79587C10.7461 7.71038 10.8506 7.6259 10.9559 7.54242L24 24L10.6424 7.79587Z" fill="#FF00A6"/>
      <path d="M10.9272 7.56526C11.0324 7.4816 11.1383 7.39895 11.2451 7.31732L24 24L10.9272 7.56526Z" fill="#FF00A2"/>
      <path d="M11.216 7.33958C11.3226 7.25777 11.43 7.17698 11.5382 7.09723L24 24L11.216 7.33958Z" fill="#FF009D"/>
      <path d="M11.5087 7.11901C11.6168 7.03907 11.7256 6.96017 11.8351 6.88232L24 24L11.5087 7.11901Z" fill="#FF0099"/>
      <path d="M11.8052 6.90356C11.9146 6.82552 12.0248 6.74853 12.1357 6.67261L24 24L11.8052 6.90356Z" fill="#FF0095"/>
      <path d="M12.1055 6.69336C12.2162 6.61724 12.3277 6.54218 12.4399 6.4682L24 24L12.1055 6.69336Z" fill="#FF0091"/>
      <path d="M12.4093 6.48845C12.5214 6.41427 12.6342 6.34118 12.7476 6.26917L24 24L12.4093 6.48845Z" fill="#FF008C"/>
      <path d="M12.7167 6.28872C12.83 6.21652 12.9441 6.1454 13.0588 6.07538L24 23.9999L12.7167 6.28872Z" fill="#FF0088"/>
      <path d="M13.0275 6.09461C13.1421 6.02439 13.2574 5.95527 13.3733 5.88727L24 24.0001L13.0275 6.09461Z" fill="#FF0084"/>
      <path d="M13.3417 5.90581C13.4575 5.8376 13.5739 5.7705 13.691 5.70453L24 24L13.3417 5.90581Z" fill="#FF0080"/>
      <path d="M13.6591 5.72249C13.7761 5.65632 13.8937 5.59126 14.0119 5.52734L24 24L13.6591 5.72249Z" fill="#FF007B"/>
      <path d="M13.9797 5.54486C14.0978 5.48073 14.2165 5.41774 14.3358 5.3559L24 24L13.9797 5.54486Z" fill="#FF0077"/>
      <path d="M14.3033 5.37278C14.4225 5.31073 14.5423 5.24982 14.6627 5.19006L24 24L14.3033 5.37278Z" fill="#FF0073"/>
      <path d="M14.6299 5.20639C14.7501 5.14642 14.871 5.08761 14.9924 5.02997L24 24L14.6299 5.20639Z" fill="#FF006F"/>
      <path d="M14.9593 5.04574C15.0806 4.98788 15.2024 4.93119 15.3248 4.87567L24 24L14.9593 5.04574Z" fill="#FF006A"/>
      <path d="M15.2914 4.89083C15.4137 4.8351 15.5366 4.78055 15.6599 4.72717L24 24L15.2914 4.89083Z" fill="#FF0066"/>
      <path d="M15.6263 4.74174C15.7495 4.68815 15.8733 4.63575 15.9975 4.58453L24 24L15.6263 4.74174Z" fill="#FF0062"/>
      <path d="M15.9636 4.59852C16.0878 4.54709 16.2124 4.49685 16.3376 4.44781L24 24L15.9636 4.59852Z" fill="#FF005E"/>
      <path d="M16.3035 4.46123C16.4285 4.41198 16.554 4.36392 16.68 4.31708L24 24L16.3035 4.46123Z" fill="#FF0059"/>
      <path d="M16.6456 4.32988C16.7715 4.28282 16.8978 4.23696 17.0246 4.19232L24 24L16.6456 4.32988Z" fill="#FF0055"/>
      <path d="M16.9901 4.20453C17.1167 4.15967 17.2438 4.11603 17.3714 4.07361L24 24L16.9901 4.20453Z" fill="#FF0051"/>
      <path d="M17.3366 4.08519C17.4641 4.04254 17.5919 4.00113 17.7201 3.96094L24 24L17.3366 4.08519Z" fill="#FF004D"/>
      <path d="M17.6852 3.97197C17.8134 3.93156 17.9419 3.89238 18.0708 3.85443L24 24L17.6852 3.97197Z" fill="#FF0048"/>
      <path d="M18.0357 3.86476C18.1645 3.82659 18.2938 3.78966 18.4233 3.75397L24 24L18.0357 3.86476Z" fill="#FF0044"/>
      <path d="M18.388 3.76374C18.5175 3.72782 18.6473 3.69315 18.7775 3.65973L24 24L18.388 3.76374Z" fill="#FF0040"/>
      <path d="M18.742 3.66891C18.8721 3.63526 19.0025 3.60286 19.1333 3.57172L24 24L18.742 3.66891Z" fill="#FF003C"/>
      <path d="M19.0977 3.58022C19.2283 3.54884 19.3593 3.51873 19.4906 3.48987L24 24L19.0977 3.58022Z" fill="#FF0037"/>
      <path d="M19.4548 3.49779C19.586 3.4687 19.7175 3.44087 19.8492 3.41431L24 24L19.4548 3.49779Z" fill="#FF0033"/>
      <path d="M19.8133 3.42155C19.945 3.39476 20.0769 3.36923 20.2091 3.34497L24 24L19.8133 3.42155Z" fill="#FF002F"/>
      <path d="M20.1731 3.35164C20.3052 3.32715 20.4376 3.30393 20.5702 3.28198L24 24L20.1731 3.35164Z" fill="#FF002B"/>
      <path d="M20.534 3.288C20.6665 3.26582 20.7993 3.24491 20.9323 3.22528L24 24L20.534 3.288Z" fill="#FF0026"/>
      <path d="M20.896 3.23069C21.0289 3.21082 21.162 3.19224 21.2953 3.17493L24 24L20.896 3.23069Z" fill="#FF0022"/>
      <path d="M21.2589 3.17964C21.3922 3.1621 21.5256 3.14584 21.6591 3.13086L24 24L21.2589 3.17964Z" fill="#FF001E"/>
      <path d="M21.6227 3.13499C21.7563 3.11978 21.8899 3.10585 22.0237 3.0932L24 24L21.6227 3.13499Z" fill="#FF001A"/>
      <path d="M21.9872 3.09668C22.121 3.0838 22.2549 3.0722 22.3889 3.06189L24 24L21.9872 3.09668Z" fill="#FF0015"/>
      <path d="M22.3523 3.06476C22.4863 3.05422 22.6204 3.04496 22.7545 3.03699L24 24L22.3523 3.06476Z" fill="#FF0011"/>
      <path d="M22.718 3.03918C22.8521 3.03098 22.9863 3.02406 23.1206 3.01843L24 24L22.718 3.03918Z" fill="#FF000D"/>
      <path d="M23.084 3.02C23.2182 3.01414 23.3525 3.00957 23.4869 3.00629L24 24L23.084 3.02Z" fill="#FF0009"/>
      <path d="M23.4503 3.00717C23.5846 3.00365 23.719 3.00143 23.8534 3.00049L24 24L23.4503 3.00717Z" fill="#FF0004"/>
      <path d="M24 45C35.598 45 45 35.598 45 24C45 12.402 35.598 3 24 3C12.402 3 3 12.402 3 24C3 35.598 12.402 45 24 45Z" fill="url(#paint0_radial_1_2)"/>
      <path d="M46.5 24C46.5 36.4264 36.4264 46.5 24 46.5C11.5736 46.5 1.5 36.4264 1.5 24C1.5 11.5736 11.5736 1.5 24 1.5C36.4264 1.5 46.5 11.5736 46.5 24Z" stroke="white" stroke-width="3" stroke-opacity="0.4"/>
    </g>
    <defs>
      <radialGradient id="paint0_radial_1_2" cx="0" cy="0" r="1" gradientUnits="userSpaceOnUse" gradientTransform="translate(24 24) scale(21 21)">
        <stop stop-color="white"/>
        <stop offset="1" stop-color="white" stop-opacity="0"/>
      </radialGradient>
      <clipPath id="clip0_1_2">
        <rect width="48" height="48" fill="white"/>
      </clipPath>
    </defs>
  </svg>
